<svg xmlns="http://www.w3.org/2000/svg" width="396" height="404" stroke="currentColor" fill="currentColor" viewBox="0 0 396 404">
  <path fill-rule="evenodd" d="M70.012 69.127a1 1 0 0 1 .971-.002l125 69a1 1 0 0 1 .003 1.749l-67.256 37.365-1.73 3.027V323a1 1 0 0 1-.461.842l-125 80A.999.999 0 0 1 0 403V112a1 1 0 0 1 .064-.351l1.5-4a.997.997 0 0 1 .448-.522l68-38Zm.491 2.017-67.195 37.55L2 112.181v288.992l123-78.72V180c0-.174.045-.345.132-.496l2-3.5a.998.998 0 0 1 .382-.378l65.922-36.623-122.933-67.86Zm324.5 35.992a.999.999 0 0 1 .497.864v295a.998.998 0 0 1-1.533.846l-127-80a.998.998 0 0 1-.467-.846V180c0-.36.194-.692.507-.87l127-72a1 1 0 0 1 .996.006ZM268.5 180.583v141.865l125 78.74V109.716l-125 70.867Z" clip-rule="evenodd"/>
  <path fill-rule="evenodd" d="M194.519.123c.297-.162.656-.164.954-.004l199.5 107a1 1 0 0 1 .016 1.753l-126.5 71a.997.997 0 0 1-.973.003l-198-109.5a1 1 0 0 1 .003-1.752l125-68.5Zm.486 2.014L72.074 69.505l195.922 108.351 124.425-69.835L195.005 2.138Z" clip-rule="evenodd"/>
  <path fill-rule="evenodd" d="M68.855 69.128a1 1 0 0 1 .967-.007l126.155 68.5a1 1 0 0 1 .008 1.753l-68.5 38a.996.996 0 0 1-.975-.003l-123.5-69.5a.999.999 0 0 1 0-1.743l65.845-37Zm.498 2.014L5.54 107.001l121.463 68.353 66.419-36.845L69.353 71.142Z" clip-rule="evenodd"/>
</svg>
