<svg xmlns="http://www.w3.org/2000/svg" width="1200" height="900" viewBox="0 0 1200 900">
<circle cx="827.0" cy="236.0" r="92.0" fill="#f4e4b6" opacity="1"/><circle cx="810.0" cy="220.0" r="81.0" fill="#ffedc5" opacity="0.55"/><circle cx="358.6" cy="205.7" r="1.3" fill="#efdfb3" opacity="0.4765771148994365"/><circle cx="691.6" cy="200.7" r="1.2" fill="#efdfb3" opacity="0.3213393022904674"/><circle cx="174.8" cy="121.7" r="1.5" fill="#efdfb3" opacity="0.21524561084334448"/><circle cx="437.1" cy="178.6" r="1.3" fill="#efdfb3" opacity="0.4601162277773231"/><circle cx="983.1" cy="353.7" r="1.3" fill="#efdfb3" opacity="0.32148937338903594"/><circle cx="1004.4" cy="325.9" r="1.2" fill="#efdfb3" opacity="0.678778401089716"/><circle cx="1014.6" cy="358.3" r="0.9" fill="#efdfb3" opacity="0.3303831094557733"/><circle cx="926.0" cy="127.1" r="0.9" fill="#efdfb3" opacity="0.22935755965626675"/><circle cx="882.0" cy="115.5" r="0.8" fill="#efdfb3" opacity="0.568046339287652"/><circle cx="146.4" cy="301.7" r="0.7" fill="#efdfb3" opacity="0.7831772842605134"/><circle cx="198.1" cy="83.5" r="1.2" fill="#efdfb3" opacity="0.6594927529764089"/><circle cx="583.5" cy="275.9" r="0.9" fill="#efdfb3" opacity="0.7148050634735093"/><circle cx="275.1" cy="174.4" r="1.6" fill="#efdfb3" opacity="0.43563210148945514"/><circle cx="119.0" cy="279.4" r="0.7" fill="#efdfb3" opacity="0.4463113270743025"/><circle cx="427.3" cy="201.4" r="0.8" fill="#efdfb3" opacity="0.7544088846005934"/><circle cx="936.7" cy="221.4" r="1.0" fill="#efdfb3" opacity="0.43158834760896486"/><circle cx="335.9" cy="173.6" r="1.2" fill="#efdfb3" opacity="0.6495449800856095"/><circle cx="158.6" cy="352.2" r="1.7" fill="#efdfb3" opacity="0.5210283553608894"/><circle cx="649.1" cy="65.7" r="0.9" fill="#efdfb3" opacity="0.22700317156881"/><circle cx="173.7" cy="280.7" r="0.8" fill="#efdfb3" opacity="0.6168695059345051"/><circle cx="899.5" cy="176.2" r="1.4" fill="#efdfb3" opacity="0.5541926377158017"/><circle cx="726.6" cy="235.9" r="1.4" fill="#efdfb3" opacity="0.29323388494852765"/><circle cx="1134.7" cy="104.9" r="0.8" fill="#efdfb3" opacity="0.3431495933595652"/><circle cx="942.2" cy="367.4" r="1.8" fill="#efdfb3" opacity="0.28084144356733226"/><circle cx="471.3" cy="291.2" r="0.7" fill="#efdfb3" opacity="0.44734560513908406"/><circle cx="669.3" cy="127.7" r="1.0" fill="#efdfb3" opacity="0.4847843886007117"/><circle cx="200.8" cy="338.8" r="1.2" fill="#efdfb3" opacity="0.30249550742651915"/><circle cx="592.8" cy="158.8" r="1.4" fill="#efdfb3" opacity="0.24015282214995692"/><circle cx="453.5" cy="58.7" r="1.3" fill="#efdfb3" opacity="0.49460093470473265"/><circle cx="915.7" cy="250.0" r="1.2" fill="#efdfb3" opacity="0.5756784646523122"/><circle cx="401.6" cy="214.1" r="1.1" fill="#efdfb3" opacity="0.47213014274007"/><circle cx="502.8" cy="35.3" r="0.8" fill="#efdfb3" opacity="0.5451786665383611"/><circle cx="186.6" cy="161.0" r="1.6" fill="#efdfb3" opacity="0.49026253303069384"/><circle cx="894.4" cy="146.5" r="0.6" fill="#efdfb3" opacity="0.46572350277274377"/><circle cx="877.3" cy="199.2" r="1.0" fill="#efdfb3" opacity="0.7155114978689974"/><circle cx="452.9" cy="352.3" r="1.5" fill="#efdfb3" opacity="0.3131430001622583"/><circle cx="746.6" cy="255.7" r="1.3" fill="#efdfb3" opacity="0.6102199416537049"/><circle cx="482.5" cy="288.3" r="1.3" fill="#efdfb3" opacity="0.6698857233181905"/><circle cx="881.1" cy="240.2" r="1.2" fill="#efdfb3" opacity="0.3349531559420129"/><circle cx="157.1" cy="201.4" r="1.2" fill="#efdfb3" opacity="0.42321557545730115"/><circle cx="593.8" cy="327.6" r="1.6" fill="#efdfb3" opacity="0.7366858242818644"/><circle cx="200.2" cy="107.1" r="1.6" fill="#efdfb3" opacity="0.6966599637626895"/><circle cx="280.3" cy="299.9" r="0.6" fill="#efdfb3" opacity="0.4347111399377053"/><circle cx="737.5" cy="169.8" r="1.6" fill="#efdfb3" opacity="0.32865550701145874"/><circle cx="219.6" cy="183.7" r="0.9" fill="#efdfb3" opacity="0.6443086633551438"/><circle cx="800.2" cy="73.2" r="0.8" fill="#efdfb3" opacity="0.23682645112965328"/><circle cx="1094.6" cy="117.7" r="0.8" fill="#efdfb3" opacity="0.37601023384877863"/><circle cx="525.0" cy="89.1" r="1.4" fill="#efdfb3" opacity="0.504247813280869"/><circle cx="427.2" cy="362.6" r="1.3" fill="#efdfb3" opacity="0.621673348867576"/><circle cx="406.4" cy="174.8" r="1.7" fill="#efdfb3" opacity="0.2992630658702257"/><circle cx="1098.8" cy="132.4" r="0.6" fill="#efdfb3" opacity="0.43733533821329384"/><circle cx="962.3" cy="240.8" r="1.2" fill="#efdfb3" opacity="0.21911091410574288"/><circle cx="631.6" cy="374.5" r="1.6" fill="#efdfb3" opacity="0.7054981459402938"/><circle cx="114.0" cy="93.3" r="1.0" fill="#efdfb3" opacity="0.65591660113987"/><circle cx="672.2" cy="140.1" r="0.7" fill="#efdfb3" opacity="0.38261426198116544"/><circle cx="757.6" cy="243.5" r="1.7" fill="#efdfb3" opacity="0.5576941653477074"/><circle cx="814.2" cy="35.5" r="1.0" fill="#efdfb3" opacity="0.27023130440451126"/><circle cx="367.8" cy="298.8" r="1.2" fill="#efdfb3" opacity="0.6457199187538387"/><circle cx="1024.7" cy="166.2" r="1.1" fill="#efdfb3" opacity="0.21333890535166516"/><circle cx="676.8" cy="251.5" r="1.8" fill="#efdfb3" opacity="0.3914651171084693"/><circle cx="330.7" cy="374.3" r="0.7" fill="#efdfb3" opacity="0.354431494478962"/><circle cx="735.2" cy="361.4" r="0.9" fill="#efdfb3" opacity="0.4538888458288869"/><circle cx="898.3" cy="82.9" r="0.6" fill="#efdfb3" opacity="0.36016283009329253"/><circle cx="866.6" cy="206.8" r="1.6" fill="#efdfb3" opacity="0.35541352714587926"/><circle cx="868.8" cy="240.6" r="1.8" fill="#efdfb3" opacity="0.6511721445596848"/><circle cx="717.1" cy="114.1" r="1.1" fill="#efdfb3" opacity="0.2574424499321208"/><circle cx="168.9" cy="251.4" r="1.8" fill="#efdfb3" opacity="0.5302598057337795"/><circle cx="363.2" cy="285.0" r="1.6" fill="#efdfb3" opacity="0.785954102698865"/><circle cx="1057.8" cy="73.4" r="1.1" fill="#efdfb3" opacity="0.3440737540399287"/><circle cx="1082.8" cy="41.8" r="0.9" fill="#efdfb3" opacity="0.5098340321289441"/><circle cx="413.8" cy="337.1" r="0.8" fill="#efdfb3" opacity="0.5153513803945216"/><circle cx="1024.1" cy="164.6" r="1.1" fill="#efdfb3" opacity="0.6835918932516616"/><circle cx="1042.2" cy="208.4" r="1.5" fill="#efdfb3" opacity="0.5567528278057982"/><circle cx="428.0" cy="156.4" r="0.8" fill="#efdfb3" opacity="0.628333064091871"/><circle cx="1018.6" cy="299.1" r="1.3" fill="#efdfb3" opacity="0.3929485339484342"/><circle cx="1111.2" cy="42.4" r="1.4" fill="#efdfb3" opacity="0.3028179817720853"/><circle cx="616.0" cy="314.4" r="1.7" fill="#efdfb3" opacity="0.5504864119682653"/><circle cx="1101.1" cy="192.2" r="1.2" fill="#efdfb3" opacity="0.23918758882914812"/><circle cx="203.7" cy="197.5" r="1.5" fill="#efdfb3" opacity="0.6752417342379013"/><circle cx="481.2" cy="354.9" r="0.7" fill="#efdfb3" opacity="0.5108118985148352"/><circle cx="344.7" cy="91.7" r="1.0" fill="#efdfb3" opacity="0.639637473065501"/><circle cx="209.6" cy="253.0" r="1.4" fill="#efdfb3" opacity="0.49342968553395156"/><circle cx="700.7" cy="132.6" r="1.0" fill="#efdfb3" opacity="0.26155661541785263"/><circle cx="648.8" cy="147.7" r="1.5" fill="#efdfb3" opacity="0.6230325661711524"/><circle cx="745.9" cy="85.0" r="1.4" fill="#efdfb3" opacity="0.5185319491629865"/><circle cx="633.3" cy="172.7" r="1.4" fill="#efdfb3" opacity="0.26545874101928446"/><circle cx="1034.4" cy="99.6" r="1.5" fill="#efdfb3" opacity="0.25245063200749907"/><circle cx="632.2" cy="248.7" r="1.3" fill="#efdfb3" opacity="0.6001484295760265"/><circle cx="400.8" cy="209.4" r="1.7" fill="#efdfb3" opacity="0.4531917623025774"/><circle cx="912.5" cy="65.0" r="1.0" fill="#efdfb3" opacity="0.2418946467930853"/><circle cx="165.7" cy="324.9" r="1.2" fill="#efdfb3" opacity="0.49346348046358895"/><circle cx="788.2" cy="225.3" r="1.4" fill="#efdfb3" opacity="0.6897506438415263"/><circle cx="759.1" cy="278.4" r="0.9" fill="#efdfb3" opacity="0.6216533894487648"/><circle cx="500.4" cy="350.8" r="1.6" fill="#efdfb3" opacity="0.36118687685134976"/><circle cx="420.7" cy="83.1" r="0.9" fill="#efdfb3" opacity="0.2553291155060369"/>
</svg>
