<svg xmlns="http://www.w3.org/2000/svg" width="1200" height="900" viewBox="0 0 1200 900">
<path d="M470.0 115 q170 -25 435 -4" fill="none" stroke="#f6f1df" stroke-width="3.774362996463957" stroke-linecap="round" stroke-linejoin="round" opacity="0.5"/><path d="M496.6 124 q170 -25 435 -4" fill="none" stroke="#f6f1df" stroke-width="2.5305616162652287" stroke-linecap="round" stroke-linejoin="round" opacity="0.5"/><path d="M520.8 133 q170 -25 435 -4" fill="none" stroke="#f6f1df" stroke-width="5.710377092956236" stroke-linecap="round" stroke-linejoin="round" opacity="0.5"/><path d="M540.5 142 q170 -25 435 -4" fill="none" stroke="#f6f1df" stroke-width="6.468105230634464" stroke-linecap="round" stroke-linejoin="round" opacity="0.5"/><path d="M553.9 151 q170 -25 435 -4" fill="none" stroke="#f6f1df" stroke-width="6.379564076076244" stroke-linecap="round" stroke-linejoin="round" opacity="0.5"/><path d="M559.8 160 q170 -25 435 -4" fill="none" stroke="#f6f1df" stroke-width="5.172971739862081" stroke-linecap="round" stroke-linejoin="round" opacity="0.5"/><path d="M557.6 169 q170 -25 435 -4" fill="none" stroke="#f6f1df" stroke-width="3.9669622316058435" stroke-linecap="round" stroke-linejoin="round" opacity="0.5"/><path d="M547.7 178 q170 -25 435 -4" fill="none" stroke="#f6f1df" stroke-width="4.017276545308508" stroke-linecap="round" stroke-linejoin="round" opacity="0.5"/><path d="M530.8 187 q170 -25 435 -4" fill="none" stroke="#f6f1df" stroke-width="7.729236792187065" stroke-linecap="round" stroke-linejoin="round" opacity="0.5"/><path d="M508.5 196 q170 -25 435 -4" fill="none" stroke="#f6f1df" stroke-width="5.6459639355903235" stroke-linecap="round" stroke-linejoin="round" opacity="0.5"/><path d="M482.7 205 q170 -25 435 -4" fill="none" stroke="#f6f1df" stroke-width="2.8732561257145957" stroke-linecap="round" stroke-linejoin="round" opacity="0.5"/><path d="M455.8 214 q170 -25 435 -4" fill="none" stroke="#f6f1df" stroke-width="4.121225069380991" stroke-linecap="round" stroke-linejoin="round" opacity="0.5"/><path d="M430.2 223 q170 -25 435 -4" fill="none" stroke="#f6f1df" stroke-width="7.756176700840442" stroke-linecap="round" stroke-linejoin="round" opacity="0.5"/><path d="M408.1 232 q170 -25 435 -4" fill="none" stroke="#f6f1df" stroke-width="6.892276015921375" stroke-linecap="round" stroke-linejoin="round" opacity="0.5"/><path d="M391.6 241 q170 -25 435 -4" fill="none" stroke="#f6f1df" stroke-width="6.129134458444302" stroke-linecap="round" stroke-linejoin="round" opacity="0.5"/><path d="M382.0 250 q170 -25 435 -4" fill="none" stroke="#f6f1df" stroke-width="6.542617504476369" stroke-linecap="round" stroke-linejoin="round" opacity="0.5"/><path d="M380.3 259 q170 -25 435 -4" fill="none" stroke="#f6f1df" stroke-width="2.2263770668152487" stroke-linecap="round" stroke-linejoin="round" opacity="0.5"/><path d="M386.7 268 q170 -25 435 -4" fill="none" stroke="#f6f1df" stroke-width="7.065726093782056" stroke-linecap="round" stroke-linejoin="round" opacity="0.5"/><path d="M400.5 277 q170 -25 435 -4" fill="none" stroke="#f6f1df" stroke-width="4.439938065963393" stroke-linecap="round" stroke-linejoin="round" opacity="0.5"/><path d="M420.4 286 q170 -25 435 -4" fill="none" stroke="#f6f1df" stroke-width="7.692334590450449" stroke-linecap="round" stroke-linejoin="round" opacity="0.5"/><path d="M444.9 295 q170 -25 435 -4" fill="none" stroke="#f6f1df" stroke-width="3.9135474892033537" stroke-linecap="round" stroke-linejoin="round" opacity="0.5"/><path d="M471.5 304 q170 -25 435 -4" fill="none" stroke="#f6f1df" stroke-width="7.8385233819384945" stroke-linecap="round" stroke-linejoin="round" opacity="0.5"/>
</svg>
