<svg height="1em" style="flex:none;line-height:1" viewBox="0 0 24 24" width="1em" xmlns="http://www.w3.org/2000/svg"><title>Luma</title><path d="M2 5.999L12.392 0v24L2 18V5.999z" fill="#000"></path><path d="M12.392 24L2 18l10.392-6 10.393 6-10.393 6z" fill="url(#lobe-icons-luma-0-_R_0_)"></path><path d="M12.392 24L2 18l10.392-6 10.393 6-10.393 6z" fill="url(#lobe-icons-luma-1-_R_0_)"></path><path d="M2 5.999L12.392 0v24L2 18V5.999z" fill="url(#lobe-icons-luma-2-_R_0_)" style="mix-blend-mode:screen"></path><path d="M12.392 24L2 18l10.392-6 10.393 6-10.393 6z" fill="url(#lobe-icons-luma-3-_R_0_)" style="mix-blend-mode:overlay"></path><path d="M2 5.999L12.392 0v24L2 18V5.999z" fill="url(#lobe-icons-luma-4-_R_0_)" style="mix-blend-mode:overlay"></path><defs><linearGradient gradientUnits="userSpaceOnUse" id="lobe-icons-luma-0-_R_0_" x1="2" x2="22.785" y1="18" y2="18"><stop stop-color="#00A"></stop><stop offset="1" stop-color="#A78DFF"></stop></linearGradient><linearGradient gradientUnits="userSpaceOnUse" id="lobe-icons-luma-1-_R_0_" x1="2" x2="22.785" y1="18" y2="18"><stop stop-color="#00A"></stop><stop offset="1" stop-color="#A78DFF"></stop></linearGradient><linearGradient gradientUnits="userSpaceOnUse" id="lobe-icons-luma-2-_R_0_" x1="13.748" x2="4.672" y1="22.642" y2="3.745"><stop stop-color="#004EFF"></stop><stop offset="1" stop-color="#0FF"></stop></linearGradient><linearGradient gradientUnits="userSpaceOnUse" id="lobe-icons-luma-3-_R_0_" x1="2" x2="22.785" y1="18" y2="18"><stop stop-color="#00A"></stop><stop offset="1" stop-color="#A78DFF"></stop></linearGradient><linearGradient gradientUnits="userSpaceOnUse" id="lobe-icons-luma-4-_R_0_" x1="13.748" x2="4.672" y1="22.642" y2="3.745"><stop stop-color="#004EFF"></stop><stop offset="1" stop-color="#0FF"></stop></linearGradient></defs></svg>