<svg width="33" height="22" viewBox="0 0 33 22" fill="none" xmlns="http://www.w3.org/2000/svg">
<path d="M12.4971 3.58887C12.8639 3.48527 13.2668 3.47256 13.6426 3.5498C13.9946 3.62223 14.3293 3.77698 14.583 4.01367L23.8037 10.2998C24.0047 10.4369 24.1782 10.6095 24.3027 10.8145C24.4283 11.0211 24.4999 11.255 24.5 11.5C24.5 11.7452 24.4283 11.9798 24.3027 12.1865C24.1782 12.3914 24.0047 12.5641 23.8037 12.7012L14.583 18.9854C14.3293 19.2223 13.9948 19.3777 13.6426 19.4502C13.2668 19.5274 12.8639 19.5147 12.4971 19.4111C12.1334 19.3084 11.7944 19.1127 11.5664 18.8232C11.3489 18.547 11.2517 18.2021 11.3232 17.8516V15.1895C11.3231 15.1523 11.3014 15.0565 11.1455 14.9502C10.9882 14.8429 10.7462 14.7677 10.4707 14.7676H2.35254C1.91072 14.7675 1.46418 14.6487 1.11426 14.4102C0.763375 14.1708 0.5 13.7971 0.5 13.3447V9.65527C0.5 9.20294 0.763375 8.82919 1.11426 8.58984C1.46418 8.35126 1.91072 8.23249 2.35254 8.23242H10.4707C10.7462 8.23235 10.9882 8.15707 11.1455 8.0498C11.3014 7.9435 11.3231 7.84765 11.3232 7.81055V5.14746C11.252 4.79726 11.3491 4.45275 11.5664 4.17676C11.7944 3.88727 12.1334 3.69162 12.4971 3.58887Z" fill="black" stroke="#EAEAEA" stroke-linecap="round" stroke-linejoin="round"/>
</svg>
