<svg width="25" height="17" viewBox="0 0 25 17" fill="none" xmlns="http://www.w3.org/2000/svg">
<path d="M12.5029 16.4111C12.1361 16.5147 11.7332 16.5274 11.3574 16.4502C11.0054 16.3778 10.6707 16.223 10.417 15.9863L1.19629 9.70019C0.995309 9.56314 0.821841 9.39047 0.697266 9.18554C0.57173 8.9789 0.50009 8.745 0.500001 8.49999C0.500001 8.25482 0.571651 8.02024 0.697266 7.81347C0.821845 7.60855 0.995312 7.43587 1.19629 7.29882L10.417 1.01464C10.6708 0.777696 11.0052 0.622269 11.3574 0.5498C11.7332 0.472556 12.1361 0.485266 12.5029 0.588862C12.8666 0.691617 13.2056 0.887261 13.4336 1.17675C13.6511 1.45299 13.7483 1.79791 13.6768 2.14843L13.6768 4.81054C13.6769 4.84765 13.6986 4.94349 13.8545 5.0498C14.0118 5.15707 14.2538 5.23234 14.5293 5.23242L22.6475 5.23242C23.0893 5.23248 23.5358 5.35125 23.8857 5.58984C24.2366 5.82919 24.5 6.20294 24.5 6.65527L24.5 10.3447C24.5 10.7971 24.2366 11.1708 23.8857 11.4102C23.5358 11.6487 23.0893 11.7675 22.6475 11.7676L14.5293 11.7676C14.2538 11.7677 14.0118 11.8429 13.8545 11.9502C13.6986 12.0565 13.6769 12.1523 13.6768 12.1894L13.6768 14.8525C13.748 15.2027 13.6509 15.5472 13.4336 15.8232C13.2056 16.1127 12.8666 16.3084 12.5029 16.4111Z" fill="black" stroke="#EAEAEA" stroke-linecap="round" stroke-linejoin="round"/>
</svg>
