<svg width="25" height="17" viewBox="0 0 25 17" fill="none" xmlns="http://www.w3.org/2000/svg">
<path d="M12.4971 0.588865C12.8639 0.485269 13.2668 0.472558 13.6426 0.549803C13.9946 0.622226 14.3293 0.776979 14.583 1.01367L23.8037 7.2998C24.0047 7.43686 24.1782 7.60953 24.3027 7.81445C24.4283 8.02109 24.4999 8.25499 24.5 8.5C24.5 8.74517 24.4283 8.97976 24.3027 9.18652C24.1782 9.39144 24.0047 9.56412 23.8037 9.70117L14.583 15.9853C14.3293 16.2223 13.9948 16.3777 13.6426 16.4502C13.2668 16.5274 12.8639 16.5147 12.4971 16.4111C12.1334 16.3084 11.7944 16.1127 11.5664 15.8232C11.3489 15.547 11.2517 15.2021 11.3232 14.8516V12.1895C11.3231 12.1523 11.3014 12.0565 11.1455 11.9502C10.9882 11.8429 10.7462 11.7677 10.4707 11.7676H2.35254C1.91072 11.7675 1.46418 11.6487 1.11426 11.4102C0.763375 11.1708 0.5 10.7971 0.5 10.3447V6.65527C0.5 6.20294 0.763375 5.82919 1.11426 5.58984C1.46418 5.35125 1.91072 5.23248 2.35254 5.23242H10.4707C10.7462 5.23234 10.9882 5.15707 11.1455 5.0498C11.3014 4.9435 11.3231 4.84765 11.3232 4.81054V2.14746C11.252 1.79726 11.3491 1.45275 11.5664 1.17676C11.7944 0.887263 12.1334 0.69162 12.4971 0.588865Z" fill="black" stroke="#EAEAEA" stroke-linecap="round" stroke-linejoin="round"/>
</svg>
