<svg width="33" height="22" viewBox="0 0 33 22" fill="none" xmlns="http://www.w3.org/2000/svg">
<path d="M12.5029 19.4111C12.1361 19.5147 11.7332 19.5274 11.3574 19.4502C11.0054 19.3778 10.6707 19.223 10.417 18.9863L1.19629 12.7002C0.995309 12.5631 0.821841 12.3905 0.697266 12.1855C0.57173 11.9789 0.50009 11.745 0.500001 11.5C0.500001 11.2548 0.571651 11.0202 0.697266 10.8135C0.821844 10.6085 0.995312 10.4359 1.19629 10.2988L10.417 4.01463C10.6708 3.77769 11.0052 3.62226 11.3574 3.54979C11.7332 3.47255 12.1361 3.48526 12.5029 3.58885C12.8666 3.69161 13.2056 3.88725 13.4336 4.17674C13.6511 4.45298 13.7483 4.7979 13.6768 5.14842L13.6768 7.81053C13.6769 7.84764 13.6986 7.94348 13.8545 8.04979C14.0118 8.15706 14.2538 8.23233 14.5293 8.23241L22.6475 8.23241C23.0893 8.23247 23.5358 8.35124 23.8857 8.58983C24.2366 8.82918 24.5 9.20293 24.5 9.65526L24.5 13.3447C24.5 13.797 24.2366 14.1708 23.8857 14.4101C23.5358 14.6487 23.0893 14.7675 22.6475 14.7676L14.5293 14.7676C14.2538 14.7676 14.0118 14.8429 13.8545 14.9502C13.6986 15.0565 13.6769 15.1523 13.6768 15.1894L13.6768 17.8525C13.748 18.2027 13.6509 18.5472 13.4336 18.8232C13.2056 19.1127 12.8666 19.3084 12.5029 19.4111Z" fill="black" stroke="#EAEAEA" stroke-linecap="round" stroke-linejoin="round"/>
</svg>
