<svg xmlns="http://www.w3.org/2000/svg" width="30" height="30" fill="currentColor" viewBox="0 0 30 30">
  <g>
    <path fill-rule="evenodd" d="M26 1.5H4A2.5 2.5 0 0 0 1.5 4v22A2.5 2.5 0 0 0 4 28.5h22a2.5 2.5 0 0 0 2.5-2.5V4A2.5 2.5 0 0 0 26 1.5ZM4 0a4 4 0 0 0-4 4v22a4 4 0 0 0 4 4h22a4 4 0 0 0 4-4V4a4 4 0 0 0-4-4H4Z" clip-rule="evenodd"/>
    <path d="M14.047 4.794c.701-.644.777-.665 2.65-.733 3.134-.114 7.4-.06 7.672.097.806.466.832 1.284.123 3.767-1.008 3.528-.999 3.522-6.133 3.525l-3.66.003-.152.24c-.158.25-1.854 6.126-1.854 6.425 0 .467.277.503 3.933.503h3.464l.35.355c.456.462-.219 3.765-.425 4.643-.66 2.304-.863 2.378-6.51 2.38-5.83.004-5.909-.047-5.019-3.237.431-1.546.442-1.532-1.304-1.593C5.524 21.11 5 20.742 5 19.633c0-.24 1.536-5.794 2.326-8.412.547-1.813 1.342-2.336 3.55-2.336 1.62 0 1.58.033 2.078-1.756.456-1.643.546-1.834 1.093-2.335Z"/>
  </g>
</svg>
