{
  "asset": {
    "version": "2.0",
    "generator": "NodeTool"
  },
  "scene": 0,
  "scenes": [
    {
      "name": "Product shot",
      "nodes": [
        0,
        1,
        2,
        3,
        4
      ]
    }
  ],
  "nodes": [
    {
      "name": "Plinth",
      "translation": [
        0,
        0.12,
        0
      ],
      "rotation": [
        0,
        0,
        0,
        1
      ],
      "scale": [
        1.3,
        0.24,
        1.3
      ],
      "mesh": 0,
      "extras": {
        "nodetool_id": "obj_1"
      }
    },
    {
      "name": "Product",
      "translation": [
        0,
        0.72,
        0
      ],
      "rotation": [
        0,
        0.20791169081775934,
        0,
        0.9781476007338057
      ],
      "scale": [
        0.85,
        0.85,
        0.85
      ],
      "mesh": 1,
      "extras": {
        "nodetool_id": "obj_2"
      }
    },
    {
      "name": "Accent",
      "translation": [
        1.35,
        0.34,
        0.85
      ],
      "rotation": [
        0,
        0,
        0,
        1
      ],
      "scale": [
        0.34,
        0.34,
        0.34
      ],
      "mesh": 2,
      "extras": {
        "nodetool_id": "obj_3"
      }
    },
    {
      "name": "Halo",
      "translation": [
        -1.75,
        0.95,
        -1.2
      ],
      "rotation": [
        0.5834039901544178,
        -0.07163300276011265,
        0.09859436990808074,
        0.8029867043792831
      ],
      "scale": [
        0.55,
        0.55,
        0.55
      ],
      "mesh": 3,
      "extras": {
        "nodetool_id": "obj_4"
      }
    },
    {
      "name": "Key",
      "translation": [
        3,
        5,
        2
      ],
      "rotation": [
        0,
        0,
        0,
        1
      ],
      "scale": [
        1,
        1,
        1
      ],
      "extensions": {
        "KHR_lights_punctual": {
          "light": 0
        }
      },
      "extras": {
        "nodetool_id": "obj_5"
      }
    }
  ],
  "buffers": [
    {
      "byteLength": 4752,
      "uri": "data:application/octet-stream;base64,"
    },
    {
      "byteLength": 720,
      "uri": "data:application/octet-stream;base64,"
    },
    {
      "byteLength": 25752,
      "uri": "data:application/octet-stream;base64,"
    },
    {
      "byteLength": 51096,
      "uri": "data:application/octet-stream;base64,"
    }
  ],
  "bufferViews": [
    {
      "buffer": 0,
      "byteOffset": 0,
      "byteLength": 1608,
      "target": 34962
    },
    {
      "buffer": 0,
      "byteOffset": 1608,
      "byteLength": 1608,
      "target": 34962
    },
    {
      "buffer": 0,
      "byteOffset": 3216,
      "byteLength": 1536,
      "target": 34963
    },
    {
      "buffer": 1,
      "byteOffset": 0,
      "byteLength": 288,
      "target": 34962
    },
    {
      "buffer": 1,
      "byteOffset": 288,
      "byteLength": 288,
      "target": 34962
    },
    {
      "buffer": 1,
      "byteOffset": 576,
      "byteLength": 144,
      "target": 34963
    },
    {
      "buffer": 2,
      "byteOffset": 0,
      "byteLength": 6732,
      "target": 34962
    },
    {
      "buffer": 2,
      "byteOffset": 6732,
      "byteLength": 6732,
      "target": 34962
    },
    {
      "buffer": 2,
      "byteOffset": 13464,
      "byteLength": 12288,
      "target": 34963
    },
    {
      "buffer": 3,
      "byteOffset": 0,
      "byteLength": 13260,
      "target": 34962
    },
    {
      "buffer": 3,
      "byteOffset": 13260,
      "byteLength": 13260,
      "target": 34962
    },
    {
      "buffer": 3,
      "byteOffset": 26520,
      "byteLength": 24576,
      "target": 34963
    }
  ],
  "accessors": [
    {
      "bufferView": 0,
      "componentType": 5126,
      "count": 134,
      "type": "VEC3",
      "min": [
        -0.5,
        -0.5,
        -0.5
      ],
      "max": [
        0.5,
        0.5,
        0.5
      ]
    },
    {
      "bufferView": 1,
      "componentType": 5126,
      "count": 134,
      "type": "VEC3"
    },
    {
      "bufferView": 2,
      "componentType": 5125,
      "count": 384,
      "type": "SCALAR"
    },
    {
      "bufferView": 3,
      "componentType": 5126,
      "count": 24,
      "type": "VEC3",
      "min": [
        -0.5,
        -0.5,
        -0.5
      ],
      "max": [
        0.5,
        0.5,
        0.5
      ]
    },
    {
      "bufferView": 4,
      "componentType": 5126,
      "count": 24,
      "type": "VEC3"
    },
    {
      "bufferView": 5,
      "componentType": 5125,
      "count": 36,
      "type": "SCALAR"
    },
    {
      "bufferView": 6,
      "componentType": 5126,
      "count": 561,
      "type": "VEC3",
      "min": [
        -0.5,
        -0.5,
        -0.5
      ],
      "max": [
        0.5,
        0.5,
        0.5
      ]
    },
    {
      "bufferView": 7,
      "componentType": 5126,
      "count": 561,
      "type": "VEC3"
    },
    {
      "bufferView": 8,
      "componentType": 5125,
      "count": 3072,
      "type": "SCALAR"
    },
    {
      "bufferView": 9,
      "componentType": 5126,
      "count": 1105,
      "type": "VEC3",
      "min": [
        -0.7,
        -0.2,
        -0.7
      ],
      "max": [
        0.7,
        0.2,
        0.7
      ]
    },
    {
      "bufferView": 10,
      "componentType": 5126,
      "count": 1105,
      "type": "VEC3"
    },
    {
      "bufferView": 11,
      "componentType": 5125,
      "count": 6144,
      "type": "SCALAR"
    }
  ],
  "materials": [
    {
      "name": "Plinth Material",
      "pbrMetallicRoughness": {
        "baseColorFactor": [
          0.033104766570885055,
          0.052860647023180246,
          0.09084171118340767,
          1
        ],
        "metallicFactor": 0.1,
        "roughnessFactor": 0.8
      }
    },
    {
      "name": "Product Material",
      "pbrMetallicRoughness": {
        "baseColorFactor": [
          0.8069522576692516,
          0.1912016827407914,
          0.9473065367331999,
          1
        ],
        "metallicFactor": 0.1,
        "roughnessFactor": 0.8
      }
    },
    {
      "name": "Accent Material",
      "pbrMetallicRoughness": {
        "baseColorFactor": [
          0.9646862478944651,
          0.1651321945016676,
          0.23455058216100522,
          1
        ],
        "metallicFactor": 0.1,
        "roughnessFactor": 0.8
      }
    },
    {
      "name": "Halo Material",
      "pbrMetallicRoughness": {
        "baseColorFactor": [
          0.9734452903984125,
          0.6514056374198242,
          0.07421356838014963,
          1
        ],
        "metallicFactor": 0.1,
        "roughnessFactor": 0.8
      }
    }
  ],
  "meshes": [
    {
      "name": "Plinth",
      "primitives": [
        {
          "attributes": {
            "POSITION": 0,
            "NORMAL": 1
          },
          "indices": 2,
          "material": 0
        }
      ]
    },
    {
      "name": "Product",
      "primitives": [
        {
          "attributes": {
            "POSITION": 3,
            "NORMAL": 4
          },
          "indices": 5,
          "material": 1
        }
      ]
    },
    {
      "name": "Accent",
      "primitives": [
        {
          "attributes": {
            "POSITION": 6,
            "NORMAL": 7
          },
          "indices": 8,
          "material": 2
        }
      ]
    },
    {
      "name": "Halo",
      "primitives": [
        {
          "attributes": {
            "POSITION": 9,
            "NORMAL": 10
          },
          "indices": 11,
          "material": 3
        }
      ]
    }
  ],
  "extras": {
    "nodetool_selected": "obj_2"
  },
  "extensionsUsed": [
    "KHR_lights_punctual"
  ],
  "extensions": {
    "KHR_lights_punctual": {
      "lights": [
        {
          "type": "directional",
          "name": "Key",
          "color": [
            1,
            1,
            1
          ],
          "intensity": 1
        }
      ]
    }
  }
}
