<svg xmlns="http://www.w3.org/2000/svg" width="32" height="14" fill="currentColor" viewBox="0 0 32 14">
  <g>
    <path d="M25.679 13.572V8.645L21.7 0h2.436l2.12 4.704a10.845 10.845 0 0 1 .631 1.933c.05-.198.124-.477.223-.836.112-.36.248-.726.41-1.097L29.582 0H32l-3.979 8.645v4.927H25.68Zm-14.029 0V0h2.844l3.774 10.969-.13-1.394a70.014 70.014 0 0 1-.093-1.655 34.967 34.967 0 0 1-.037-1.487V0h2.12v13.572h-2.845l-3.737-10.97.093 1.302c.037.508.068 1.029.093 1.562.025.533.037 1.022.037 1.469v6.637h-2.12Zm-11.65 0L3.42 0h2.994l3.44 13.572h-2.38l-.744-3.29H3.123l-.743 3.29H0Zm3.551-5.187h2.751L5.484 4.74a91.397 91.397 0 0 1-.353-1.636 37.284 37.284 0 0 1-.204-1.079c-.037.224-.106.583-.205 1.079a24.792 24.792 0 0 1-.353 1.617l-.818 3.663Z"/>
  </g>
</svg>
