<svg xmlns="http://www.w3.org/2000/svg" width="29" height="32" fill="currentColor" viewBox="0 0 29 32">
  <path fill-rule="evenodd" d="M1.682 10.274a1.318 1.318 0 0 1 1.77-.584l10.71 5.396 10.71-5.396a1.318 1.318 0 1 1 1.185 2.354L14.755 17.74a1.319 1.319 0 0 1-1.187 0L2.267 12.044a1.318 1.318 0 0 1-.584-1.77Z" clip-rule="evenodd"/>
  <path fill-rule="evenodd" d="M14.161 15.243c.728 0 1.318.59 1.318 1.319v11.234a1.318 1.318 0 1 1-2.636 0V16.562c0-.728.59-1.319 1.318-1.319Z" clip-rule="evenodd"/>
  <path fill-rule="evenodd" d="m14.53 3.923-11.894 6.52v11.632L14.5 28.276l11.864-6.201V10.109L14.53 3.923ZM29 8.513 14.5.932 0 8.883v14.789l14.5 7.579 14.5-7.58V8.513Z" clip-rule="evenodd"/>
</svg>
