<svg xmlns="http://www.w3.org/2000/svg" width="32" height="33" fill="currentColor" viewBox="0 0 32 33">
  <path fill-rule="evenodd" d="M4.75 8.186C3.099 8.186 2 9.327 2 10.458v15.27c0 1.13 1.099 2.271 2.75 2.271h22.5c1.651 0 2.75-1.14 2.75-2.272V10.458c0-1.13-1.099-2.272-2.75-2.272H4.75ZM0 10.458c0-2.483 2.259-4.272 4.75-4.272h22.5c2.49 0 4.75 1.79 4.75 4.272v15.27c0 2.482-2.26 4.271-4.75 4.271H4.75C2.259 29.999 0 28.21 0 25.727V10.458Z" clip-rule="evenodd"/>
  <path fill-rule="evenodd" d="M10.375 20.183c-1.306 0-2.125.897-2.125 1.727 0 .83.819 1.727 2.125 1.727h11.25c1.306 0 2.125-.897 2.125-1.727 0-.83-.82-1.727-2.125-1.727h-11.25ZM6.25 21.91c0-2.182 1.98-3.727 4.125-3.727h11.25c2.146 0 4.125 1.545 4.125 3.727s-1.98 3.727-4.125 3.727h-11.25c-2.146 0-4.125-1.545-4.125-3.727Z" clip-rule="evenodd"/>
  <path fill-rule="evenodd" d="M18.5 18.183a1 1 0 0 1 1 1v5.454a1 1 0 0 1-2 0v-5.454a1 1 0 0 1 1-1Zm-5 0a1 1 0 0 1 1 1v5.454a1 1 0 0 1-2 0v-5.454a1 1 0 0 1 1-1ZM16 .733a1 1 0 0 1 1 1v5.454a1 1 0 1 1-2 0V1.733a1 1 0 0 1 1-1Z" clip-rule="evenodd"/>
  <path d="M9.125 15.912c1.035 0 1.875-.733 1.875-1.636 0-.904-.84-1.636-1.875-1.636-1.036 0-1.875.732-1.875 1.636 0 .903.84 1.636 1.875 1.636Zm13.75 0c1.035 0 1.875-.733 1.875-1.636 0-.904-.84-1.636-1.875-1.636-1.036 0-1.875.732-1.875 1.636 0 .903.84 1.636 1.875 1.636Z"/>
</svg>
