<svg xmlns="http://www.w3.org/2000/svg" width="32" height="32" fill="currentColor" viewBox="0 0 32 32">
  <path fill-rule="evenodd" d="M10 9c-4.55 0-8 3.192-8 6.852 0 3.661 3.45 6.853 8 6.853h12c4.55 0 8-3.192 8-6.852C30 12.191 26.55 9 22 9H10ZM0 15.852C0 10.84 4.61 7 10 7h12c5.39 0 10 3.84 10 8.852 0 5.013-4.61 8.853-10 8.853H10c-5.39 0-10-3.84-10-8.852Z" clip-rule="evenodd"/>
  <path d="M21.039 19.938c2.59 0 4.69-1.909 4.69-4.263 0-2.355-2.1-4.264-4.69-4.264-2.59 0-4.69 1.909-4.69 4.264 0 2.354 2.1 4.263 4.69 4.263Z"/>
  <path fill-rule="evenodd" d="M21.039 12.41c-2.13 0-3.69 1.55-3.69 3.264 0 1.715 1.56 3.264 3.69 3.264s3.69-1.549 3.69-3.263c0-1.715-1.56-3.264-3.69-3.264Zm-5.69 3.264c0-2.994 2.64-5.263 5.69-5.263 3.05 0 5.69 2.269 5.69 5.264 0 2.994-2.64 5.263-5.69 5.263-3.05 0-5.69-2.269-5.69-5.263Z" clip-rule="evenodd"/>
</svg>
