<svg xmlns="http://www.w3.org/2000/svg" width="32" height="29" fill="currentColor" viewBox="0 0 32 29">
  <g>
    <g>
      <path d="M18.692 0a1.196 1.196 0 0 1 0 2.393h-5.384a1.196 1.196 0 0 1 0-2.393h5.384Zm0 25.832a1.196 1.196 0 0 1 0 2.393h-5.384a1.196 1.196 0 0 1 0-2.393h5.384ZM32 5.892a1.196 1.196 0 0 1-2.393 0v-3.46a.28.28 0 0 0-.15-.04h-4.036a1.196 1.196 0 1 1 0-2.392h4.037a2.65 2.65 0 0 1 1.738.639A2.3 2.3 0 0 1 32 2.37v3.522ZM29.607 16.46v-4.696a1.196 1.196 0 1 1 2.393 0v4.696a1.196 1.196 0 1 1-2.393 0ZM32 25.854a2.3 2.3 0 0 1-.804 1.732 2.647 2.647 0 0 1-1.738.638H25.42a1.196 1.196 0 1 1 0-2.393h4.037a.276.276 0 0 0 .15-.04v-3.46a1.196 1.196 0 0 1 2.392 0v3.523ZM0 16.46v-4.696a1.196 1.196 0 1 1 2.393 0v4.696a1.196 1.196 0 1 1-2.393 0Zm0 5.871a1.196 1.196 0 1 1 2.393 0v3.46c.026.017.076.04.15.04h4.036a1.197 1.197 0 0 1 0 2.393H2.542a2.647 2.647 0 0 1-1.738-.638A2.3 2.3 0 0 1 0 25.854V22.33ZM0 5.892V2.37A2.3 2.3 0 0 1 .804.64L.992.49A2.669 2.669 0 0 1 2.542 0H6.58a1.196 1.196 0 1 1 0 2.393H2.542a.28.28 0 0 0-.15.04v3.46a1.196 1.196 0 1 1-2.392 0Zm24.075-.021.122.006a1.197 1.197 0 0 1 1.074 1.19v14.09c0 .66-.536 1.197-1.197 1.197H7.925c-.66 0-1.196-.536-1.196-1.197V7.067c0-.66.535-1.196 1.196-1.196h16.15ZM9.12 19.961h13.757V8.264H9.121V19.96Z"/>
    </g>
  </g>
</svg>
