<svg xmlns="http://www.w3.org/2000/svg" width="32" height="32" fill="currentColor" viewBox="0 0 32 32">
  <g>
    <path d="M0 6a3 3 0 0 1 3-3h26a3 3 0 0 1 3 3v4a3 3 0 0 1-3 3H3a3 3 0 0 1-3-3V6Z"/>
    <path d="M29 12v1H3v-1h26Zm2-2V6a2 2 0 0 0-2-2H3a2 2 0 0 0-2 2v4a2 2 0 0 0 2 2v1a3 3 0 0 1-2.996-2.846L0 10V6a3 3 0 0 1 3-3h26a3 3 0 0 1 3 3v4l-.004.154A3 3 0 0 1 29 13v-1a2 2 0 0 0 2-2ZM4 17.5A2.5 2.5 0 0 1 6.5 15h1a2.5 2.5 0 0 1 0 5h-1A2.5 2.5 0 0 1 4 17.5Z"/>
    <path d="M7.5 19v1h-1v-1h1ZM9 17.5A1.5 1.5 0 0 0 7.5 16h-1a1.5 1.5 0 0 0 0 3v1a2.5 2.5 0 0 1-.256-4.987L6.5 15h1l.256.013A2.5 2.5 0 0 1 7.5 20v-1A1.5 1.5 0 0 0 9 17.5Zm-5 7A2.5 2.5 0 0 1 6.5 22h1a2.5 2.5 0 0 1 0 5h-1A2.5 2.5 0 0 1 4 24.5Z"/>
    <path d="M7.5 26v1h-1v-1h1ZM9 24.5A1.5 1.5 0 0 0 7.5 23h-1a1.5 1.5 0 0 0 0 3v1a2.5 2.5 0 0 1-.256-4.987L6.5 22h1l.256.013A2.5 2.5 0 0 1 7.5 27v-1A1.5 1.5 0 0 0 9 24.5Zm4-7a2.5 2.5 0 0 1 2.5-2.5h1a2.5 2.5 0 0 1 0 5h-1a2.5 2.5 0 0 1-2.5-2.5Z"/>
    <path d="M16.5 19v1h-1v-1h1Zm1.5-1.5a1.5 1.5 0 0 0-1.5-1.5h-1a1.5 1.5 0 0 0 0 3v1a2.5 2.5 0 0 1-.256-4.987L15.5 15h1l.256.013A2.5 2.5 0 0 1 16.5 20v-1a1.5 1.5 0 0 0 1.5-1.5Zm-5 7a2.5 2.5 0 0 1 2.5-2.5h1a2.5 2.5 0 0 1 0 5h-1a2.5 2.5 0 0 1-2.5-2.5Z"/>
    <path d="M16.5 26v1h-1v-1h1Zm1.5-1.5a1.5 1.5 0 0 0-1.5-1.5h-1a1.5 1.5 0 0 0 0 3v1a2.5 2.5 0 0 1-.256-4.987L15.5 22h1l.256.013A2.5 2.5 0 0 1 16.5 27v-1a1.5 1.5 0 0 0 1.5-1.5Zm4-7a2.5 2.5 0 0 1 2.5-2.5h1a2.5 2.5 0 0 1 0 5h-1a2.5 2.5 0 0 1-2.5-2.5Z"/>
    <path d="M25.5 19v1h-1v-1h1Zm1.5-1.5a1.5 1.5 0 0 0-1.5-1.5h-1a1.5 1.5 0 0 0 0 3v1a2.5 2.5 0 0 1-.256-4.987L24.5 15h1l.256.013A2.5 2.5 0 0 1 25.5 20v-1a1.5 1.5 0 0 0 1.5-1.5Zm-5 7a2.5 2.5 0 0 1 2.5-2.5h1a2.5 2.5 0 0 1 0 5h-1a2.5 2.5 0 0 1-2.5-2.5Z"/>
    <path d="M25.5 26v1h-1v-1h1Zm1.5-1.5a1.5 1.5 0 0 0-1.5-1.5h-1a1.5 1.5 0 0 0 0 3v1a2.5 2.5 0 0 1-.256-4.987L24.5 22h1l.256.013A2.5 2.5 0 0 1 25.5 27v-1a1.5 1.5 0 0 0 1.5-1.5Z"/>
    <path d="M29 30v2H3v-2h26Zm1-1V6a1 1 0 0 0-1-1H3a1 1 0 0 0-.995.897L2 6v23a1 1 0 0 0 1 1v2a3 3 0 0 1-3-3V6a3 3 0 0 1 3-3h26a3 3 0 0 1 3 3v23a3 3 0 0 1-3 3v-2a1 1 0 0 0 1-1Z"/>
    <path d="M23 2a2 2 0 0 1 2-2h5a2 2 0 0 1 2 2v4a2 2 0 0 1-2 2h-5a2 2 0 0 1-2-2V2Z"/>
    <path d="M30 7v1h-5V7h5Zm1-1V2a1 1 0 0 0-1-1h-5a1 1 0 0 0-1 1v4a1 1 0 0 0 1 1v1l-.204-.01A2 2 0 0 1 23 6V2a2 2 0 0 1 2-2h5a2 2 0 0 1 2 2v4l-.01.204a2 2 0 0 1-1.786 1.785L30 8V7a1 1 0 0 0 1-1ZM0 2a2 2 0 0 1 2-2h5a2 2 0 0 1 2 2v4a2 2 0 0 1-2 2H2a2 2 0 0 1-2-2V2Z"/>
    <path d="M7 7v1H2V7h5Zm1-1V2a1 1 0 0 0-1-1H2a1 1 0 0 0-1 1v4a1 1 0 0 0 1 1v1l-.204-.01A2 2 0 0 1 0 6V2a2 2 0 0 1 2-2h5a2 2 0 0 1 2 2v4l-.01.204A2 2 0 0 1 7.203 7.99L7 8V7a1 1 0 0 0 1-1Z"/>
  </g>
</svg>
