<svg xmlns="http://www.w3.org/2000/svg" width="32" height="32" fill="currentColor" viewBox="0 0 32 32">
  <g>
    <path d="M30 16c0-7.732-6.268-14-14-14S2 8.268 2 16s6.268 14 14 14v2C7.163 32 0 24.837 0 16S7.163 0 16 0s16 7.163 16 16-7.163 16-16 16v-2c7.732 0 14-6.268 14-14Z"/>
    <path d="M14.56 26.907c.47.062.951.093 1.44.093v2c-.576 0-1.142-.039-1.698-.111l.258-1.982Zm3.137 1.982C17.142 28.96 16.575 29 16 29v-2c.489 0 .97-.031 1.44-.093l.257 1.982Zm-8.392-4.16a10.984 10.984 0 0 0 2.485 1.437l-.384.923-.383.924a12.982 12.982 0 0 1-2.936-1.702l1.218-1.582Zm14.607 1.582a12.982 12.982 0 0 1-2.936 1.702l-.766-1.847a10.93 10.93 0 0 0 2.485-1.438l1.217 1.583ZM5.834 20.21c.37.893.855 1.728 1.437 2.485l-1.583 1.217a12.983 12.983 0 0 1-1.702-2.936l.506-.21 1.342-.556Zm22.179.766a12.982 12.982 0 0 1-1.702 2.936l-1.582-1.217a10.984 10.984 0 0 0 1.437-2.485l1.847.766ZM3 16c0-.56.036-1.113.104-1.655l.006-.043 1.983.258a11.13 11.13 0 0 0 0 2.88l-1.983.257A13.122 13.122 0 0 1 3 16Zm25.889-1.698a13.123 13.123 0 0 1 0 3.395l-1.982-.258a11.115 11.115 0 0 0 0-2.879l1.982-.258ZM7.27 9.305a10.988 10.988 0 0 0-1.437 2.485l-1.848-.767a12.985 12.985 0 0 1 1.701-2.936L7.27 9.305Zm19.04-1.218c.688.894 1.263 1.88 1.702 2.936l-.923.384h-.001l-.923.383a10.984 10.984 0 0 0-1.438-2.485l1.583-1.218ZM11.79 5.834c-.893.37-1.728.855-2.485 1.437L8.087 5.688a12.985 12.985 0 0 1 2.936-1.702l.767 1.848Zm9.186-1.848a12.983 12.983 0 0 1 2.936 1.701l-1.217 1.584a10.987 10.987 0 0 0-2.485-1.437l.766-1.848ZM16 3c.575 0 1.142.038 1.697.11l-.258 1.983a11.13 11.13 0 0 0-2.879 0l-.258-1.983A13.12 13.12 0 0 1 16 3Zm2 13a2 2 0 1 0-4 0 2 2 0 0 0 4 0Z"/>
    <path d="M13.034 23.281a1 1 0 0 1-1.392.25l-.82-.57a1 1 0 0 1-.251-1.392l3.995-5.748a1 1 0 0 1 1.392-.25l.821.57a1 1 0 0 1 .25 1.393l-3.995 5.747Z"/>
    <path d="M28 15a1 1 0 1 1 0 2H16a1 1 0 1 1 0-2h12Z"/>
  </g>
</svg>
