<svg xmlns="http://www.w3.org/2000/svg" width="32" height="32" fill="currentColor" viewBox="0 0 32 32">
  <path fill-rule="evenodd" d="M8 4c-1.5 0-2.5.5-3.2 1.3C4.1 6.1 4 7.1 4 8v4c0 1-.4 1.8-.9 2.4-.4.4-.7.8-1.1 1.1v.5c0 .2.1.4.2.5.4.3.8.7 1.1 1.1.5.6.7 1.4.7 2.4v4c0 .9.1 1.9.8 2.7.7.8 1.7 1.3 3.2 1.3h1a1 1 0 1 1 0 2H8c-2 0-3.5-.7-4.5-1.9C2.4 26.9 2 25.4 2 24v-4c0-.6-.2-.9-.4-1.1-.3-.3-.6-.6-.9-.9-.5-.5-.7-1.2-.7-2s.2-1.5.7-2c.3-.3.6-.6.9-.9.2-.2.4-.5.4-1.1V8c0-1.4.4-2.9 1.5-4.1C4.5 2.7 6 2 8 2h1a1 1 0 0 1 0 2H8Zm16 0c1.5 0 2.5.5 3.2 1.3.7.8.8 1.8.8 2.7v4c0 1 .4 1.8.9 2.4.4.4.7.8 1.1 1.1v.5c0 .2-.1.4-.2.5-.4.3-.8.7-1.1 1.1-.5.6-.7 1.4-.7 2.4v4c0 .9-.1 1.9-.8 2.7-.7.8-1.7 1.3-3.2 1.3h-1a1 1 0 1 0 0 2h1c2 0 3.5-.7 4.5-1.9 1.1-1.2 1.5-2.7 1.5-4.1v-4c0-.6.2-.9.4-1.1.3-.3.6-.6.9-.9.5-.5.7-1.2.7-2s-.2-1.5-.7-2c-.3-.3-.6-.6-.9-.9-.2-.2-.4-.5-.4-1.1V8c0-1.4-.4-2.9-1.5-4.1C27.5 2.7 26 2 24 2h-1a1 1 0 1 0 0 2h1Z" clip-rule="evenodd"/>
  <path d="M11 11a1.5 1.5 0 1 1 3 0 1.5 1.5 0 0 1-3 0Zm7 0a1.5 1.5 0 1 1 3 0 1.5 1.5 0 0 1-3 0Zm-7 10a1.5 1.5 0 1 1 3 0 1.5 1.5 0 0 1-3 0Zm7 0a1.5 1.5 0 1 1 3 0 1.5 1.5 0 0 1-3 0Z"/>
  <path fill-rule="evenodd" d="M14 11a1 1 0 0 1 1-1h3a1 1 0 1 1 0 2h-3a1 1 0 0 1-1-1Zm0 10a1 1 0 0 1 1-1h3a1 1 0 1 1 0 2h-3a1 1 0 0 1-1-1Z" clip-rule="evenodd"/>
</svg>
