<svg xmlns="http://www.w3.org/2000/svg" width="32" height="32" fill="currentColor" viewBox="0 0 32 32">
  <path fill-rule="evenodd" d="M3.294 2.417C4.1 1.715 5.164 1.34 6.25 1.34h14.625a1 1 0 0 1 .657.246l8.125 7.09a1 1 0 0 1 .343.753V27.86c0 1.065-.486 2.053-1.294 2.759-.805.701-1.87 1.077-2.956 1.077H6.25c-1.086 0-2.151-.376-2.956-1.077C2.486 29.913 2 28.925 2 27.86V5.175c0-1.064.486-2.053 1.294-2.758Zm2.956.923c-.637 0-1.226.222-1.64.584-.411.358-.61.812-.61 1.251V27.86c0 .44.199.894.61 1.252.414.362 1.003.584 1.64.584h19.5c.637 0 1.226-.222 1.64-.584.411-.358.61-.812.61-1.252V9.883L20.5 3.34H6.25Z" clip-rule="evenodd"/>
  <path fill-rule="evenodd" d="M19.25 1.34a1 1 0 0 1 1 1v5.67c0 .44.199.894.61 1.252.414.362 1.003.584 1.64.584H29a1 1 0 1 1 0 2h-6.5c-1.087 0-2.151-.375-2.956-1.076-.808-.706-1.294-1.694-1.294-2.76V2.34a1 1 0 0 1 1-1Z" clip-rule="evenodd"/>
  <path fill-rule="evenodd" d="M7 15a1 1 0 0 1 1-1h16a1 1 0 1 1 0 2H8a1 1 0 0 1-1-1Zm0 5a1 1 0 0 1 1-1h16a1 1 0 1 1 0 2H8a1 1 0 0 1-1-1Zm0 5a1 1 0 0 1 1-1h10a1 1 0 1 1 0 2H8a1 1 0 0 1-1-1Z" clip-rule="evenodd"/>
</svg>
