<svg xmlns="http://www.w3.org/2000/svg" width="33" height="19" fill="currentColor" viewBox="0 0 33 19">
  <g>
    <path d="M.027 18.747V15.96H5.17V3.065L0 6.663V3.319L4.546.253h4.005V15.96h4.14v2.787H.027ZM16.686 19c-.776 0-1.398-.211-1.867-.633-.451-.423-.677-.997-.677-1.723 0-.726.226-1.3.677-1.723.469-.439 1.091-.658 1.867-.658s1.39.22 1.84.658c.47.423.704.997.704 1.723 0 .726-.235 1.3-.704 1.723-.45.422-1.064.633-1.84.633Zm9.758 0c-1.28 0-2.39-.228-3.328-.684-.939-.456-1.67-1.098-2.192-1.925-.505-.828-.758-1.799-.758-2.914V5.523c0-1.115.253-2.086.758-2.914.523-.827 1.253-1.469 2.192-1.925C24.054.228 25.163 0 26.444 0c1.299 0 2.409.228 3.329.684.938.456 1.66 1.098 2.165 1.925.523.828.784 1.799.784 2.914v7.954c0 1.115-.261 2.086-.785 2.914-.505.827-1.226 1.469-2.164 1.925-.939.456-2.048.684-3.329.684Zm0-2.736c.938 0 1.687-.253 2.246-.76.56-.507.839-1.182.839-2.027V5.523c0-.845-.28-1.52-.839-2.027-.56-.507-1.308-.76-2.246-.76s-1.687.253-2.246.76c-.56.507-.839 1.182-.839 2.027v7.954c0 .845.28 1.52.84 2.027.558.507 1.307.76 2.245.76Z"/>
  </g>
</svg>
