<svg xmlns="http://www.w3.org/2000/svg" width="37" height="26" fill="currentColor" viewBox="0 0 37 26">
  <g>
    <path d="M25.486 20.896c0-.618-.28-1.244-.836-1.728-.56-.489-1.345-.782-2.188-.782H3.682a1 1 0 1 1 0-2h18.78c1.292 0 2.554.445 3.504 1.274.953.832 1.52 1.992 1.52 3.236 0 1.244-.567 2.404-1.52 3.237-.95.828-2.212 1.275-3.504 1.275-2.037 0-4.185-1.161-4.944-2.95a1 1 0 1 1 1.84-.781c.377.887 1.677 1.73 3.104 1.731.843 0 1.628-.294 2.188-.782.556-.485.836-1.111.836-1.73ZM20.121 4.51c0-.618-.28-1.243-.836-1.728C18.725 2.294 17.94 2 17.097 2c-1.428 0-2.727.844-3.104 1.731a1 1 0 0 1-1.84-.78C12.912 1.16 15.06 0 17.096 0c1.291 0 2.553.446 3.503 1.274.953.832 1.521 1.993 1.521 3.237s-.568 2.404-1.521 3.236c-.95.828-2.212 1.275-3.503 1.275H1a1 1 0 0 1 0-2h16.097c.842 0 1.628-.293 2.188-.782.556-.485.836-1.11.836-1.73Z"/>
    <path d="M34.877 9.192c0-.618-.281-1.243-.836-1.728-.56-.489-1.346-.782-2.189-.782-1.427 0-2.726.843-3.103 1.731a1 1 0 0 1-1.841-.781c.76-1.79 2.907-2.95 4.944-2.95 1.292 0 2.554.446 3.503 1.274.954.832 1.521 1.993 1.522 3.236 0 1.244-.568 2.405-1.522 3.237-.95.828-2.211 1.275-3.503 1.275H2.342a1 1 0 0 1 0-2h29.51c.843 0 1.629-.294 2.189-.782.555-.485.836-1.111.836-1.73Z"/>
  </g>
</svg>
