<svg xmlns="http://www.w3.org/2000/svg" width="35" height="31" fill="currentColor" viewBox="0 0 35 31">
  <g>
    <g>
      <path d="M32.193 15.045C32.193 7.965 25.567 2 17.097 2 8.627 2 2 7.964 2 15.045c0 7.08 6.627 13.044 15.097 13.044 8.47 0 15.096-5.964 15.096-13.044Zm2 0c0 8.432-7.786 15.044-17.096 15.044S0 23.477 0 15.045C0 6.612 7.787 0 17.097 0c9.31 0 17.096 6.612 17.096 15.045Z"/>
      <path d="M22.804 15.044c0-2.556-2.423-4.851-5.707-4.851s-5.707 2.295-5.707 4.851 2.423 4.853 5.707 4.853 5.707-2.297 5.707-4.853Zm2 0c0 3.908-3.583 6.853-7.707 6.853S9.39 18.952 9.39 15.044s3.583-6.851 7.707-6.851 7.707 2.943 7.707 6.851Z"/>
      <path d="M4.961 4.457a1 1 0 0 1 1.411-.097l6.641 5.794a1 1 0 0 1-1.315 1.507l-6.64-5.793a1 1 0 0 1-.097-1.411Zm22.86-.097a1 1 0 0 1 1.316 1.508l-6.64 5.793a1 1 0 1 1-1.315-1.507l6.64-5.794Zm-6.736 14.164a1 1 0 0 1 1.411-.096l6.64 5.794a1 1 0 0 1-1.315 1.506l-6.64-5.793a1 1 0 0 1-.096-1.41Zm-9.387-.096a1 1 0 0 1 1.315 1.508l-6.64 5.793a1 1 0 1 1-1.315-1.507l6.64-5.794Z"/>
    </g>
  </g>
</svg>
