<svg xmlns="http://www.w3.org/2000/svg" width="33" height="28" fill="currentColor" viewBox="0 0 33 28">
  <g>
    <g>
      <path d="M25.294 0a1 1 0 0 1 .795.393l6.073 7.949a1 1 0 0 1-.044 1.268L16.934 26.832a1 1 0 0 1-1.5 0L.25 9.61a1 1 0 0 1-.045-1.268L6.28.392l.076-.087A1 1 0 0 1 7.073 0h18.221Zm-23 8.903 13.89 15.755 13.89-15.755L24.8 2H7.568L2.293 8.903Z"/>
      <path d="M17.205.133a1 1 0 0 1 1.365.37l4.555 7.948a1 1 0 0 1 .075.83l-6.073 17.223a1 1 0 0 1-1.886 0L9.167 9.28a1.001 1.001 0 0 1 .076-.83L13.798.503a1 1 0 0 1 1.735.994l-4.328 7.55 4.978 14.118 4.978-14.117-4.326-7.55a1 1 0 0 1 .37-1.365Z"/>
      <path d="M31.368 7.949a1 1 0 0 1 0 2H1a1 1 0 1 1 0-2h30.368Z"/>
      <path d="M10.5 9 16 .5 22 9H10.5Z"/>
    </g>
  </g>
</svg>
