<svg xmlns="http://www.w3.org/2000/svg" width="32" height="17" fill="currentColor" viewBox="0 0 32 17">
  <g>
    <g>
      <path d="M.024 16.773V14.28H4.66V2.743L0 5.96V2.97L4.099.227h3.61V14.28h3.733v2.493H.024Z"/>
      <path d="M10.474 16.773v-2.742l5.563-5.191c.78-.74 1.358-1.405 1.732-1.995.374-.604.56-1.224.56-1.858 0-.771-.227-1.368-.682-1.791-.456-.438-1.074-.657-1.854-.657-.862 0-1.537.234-2.025.702-.488.454-.732 1.088-.732 1.904h-3.05c.016-1.057.26-1.964.732-2.72.488-.77 1.171-1.367 2.05-1.79C13.646.212 14.67 0 15.84 0c1.123 0 2.098.196 2.928.59.83.392 1.472.944 1.927 1.654.456.71.683 1.556.683 2.539 0 1.012-.284 2.002-.854 2.969-.552.952-1.447 1.98-2.683 3.083l-3.708 3.377h7.465v2.561H10.474Z"/>
      <path d="M26.267 17c-1.155 0-2.163-.196-3.025-.59-.846-.392-1.505-.944-1.976-1.654-.472-.71-.708-1.549-.708-2.516h3.074c0 .74.228 1.322.683 1.745.472.408 1.13.612 1.976.612.846 0 1.497-.211 1.952-.634.455-.423.683-.998.683-1.723v-1.292c0-.74-.228-1.315-.683-1.723-.455-.423-1.106-.634-1.952-.634h-2V6.029l3.928-3.377h-6.856V.227h9.954v2.561L26.29 7.072v-.907c1.757 0 3.147.431 4.172 1.292C31.488 8.32 32 9.482 32 10.948v1.292c0 .967-.236 1.806-.707 2.516-.472.71-1.139 1.262-2.001 1.655-.862.393-1.87.589-3.025.589Z"/>
    </g>
  </g>
</svg>
