<svg xmlns="http://www.w3.org/2000/svg" width="32" height="32" fill="currentColor" viewBox="0 0 32 32">
  <path fill-rule="evenodd" d="M9 8c0-1.105.542-2 1.21-2h19.58c.668 0 1.21.895 1.21 2s-.542 2-1.21 2H10.21C9.542 10 9 9.105 9 8Zm0 9c0-1.105.542-2 1.21-2h19.58c.668 0 1.21.895 1.21 2s-.542 2-1.21 2H10.21C9.542 19 9 18.105 9 17Zm0 9c0-1.105.542-2 1.21-2h19.58c.668 0 1.21.895 1.21 2s-.542 2-1.21 2H10.21C9.542 28 9 27.105 9 26ZM1 8c0-1.105.89-2 1.988-2h.024C4.11 6 5 6.895 5 8s-.89 2-1.988 2h-.024A1.994 1.994 0 0 1 1 8Zm0 9c0-1.105.89-2 1.988-2h.024C4.11 15 5 15.895 5 17s-.89 2-1.988 2h-.024A1.994 1.994 0 0 1 1 17Zm0 9c0-1.105.89-2 1.988-2h.024C4.11 24 5 24.895 5 26s-.89 2-1.988 2h-.024A1.994 1.994 0 0 1 1 26Z" clip-rule="evenodd"/>
</svg>
