<svg xmlns="http://www.w3.org/2000/svg" width="32" height="32" fill="currentColor" viewBox="0 0 32 32">
  <g>
    <path d="M7.879 27c-1.41 0-2.631-.236-3.665-.71-1.015-.491-1.804-1.182-2.368-2.071C1.282 23.31 1 22.25 1 21.04h4.229c0 .756.225 1.352.676 1.787.47.417 1.128.625 1.974.625.864 0 1.522-.208 1.973-.625.451-.416.677-1.012.677-1.787v-1.703c0-.776-.235-1.372-.705-1.788-.451-.435-1.1-.653-1.945-.653H5.454v-3.66L9.6 9.546H1.987V6h11.925v3.66l-6.033 5.364v-1.73c2.124 0 3.796.538 5.018 1.617 1.24 1.078 1.86 2.544 1.86 4.399v1.73c0 1.211-.281 2.27-.845 3.179-.545.89-1.335 1.58-2.368 2.072-1.034.473-2.256.709-3.665.709ZM17 26.716V6h6.681c1.429 0 2.67.274 3.722.823 1.071.549 1.898 1.324 2.48 2.327.602.984.903 2.147.903 3.49v7.407c0 1.325-.3 2.488-.902 3.49-.583 1.004-1.41 1.789-2.481 2.356-1.053.549-2.293.823-3.721.823H17Zm4.229-3.973h2.453c.864 0 1.56-.246 2.086-.738.526-.491.789-1.144.789-1.958V12.64c0-.794-.263-1.437-.79-1.93-.526-.491-1.221-.737-2.085-.737h-2.453v12.77Z"/>
  </g>
</svg>
