<svg xmlns="http://www.w3.org/2000/svg" width="32" height="32" fill="currentColor" viewBox="0 0 32 32">
  <path fill-rule="evenodd" d="M7.432 6.347A.87.87 0 0 1 8.119 6h15.762a.85.85 0 0 1 .688.347l5.253 7.022a.896.896 0 0 1-.038 1.12L16.65 29.7a.867.867 0 0 1-.65.3.851.851 0 0 1-.649-.3L2.216 14.49a.894.894 0 0 1-.039-1.12l5.255-7.022Zm1.115 1.42-4.563 6.097L16 27.782l12.016-13.917-4.562-6.098H8.547Z" clip-rule="evenodd"/>
  <path fill-rule="evenodd" d="M15.133 6.117a.86.86 0 0 1 .25.226.899.899 0 0 1 .17.653.91.91 0 0 1-.105.326l-3.67 6.67L16 26.46l4.223-12.468-3.671-6.669a.91.91 0 0 1 .314-1.206.826.826 0 0 1 1.158.327l3.864 7.022a.91.91 0 0 1 .063.733l-5.15 15.212a.88.88 0 0 1-.31.427.826.826 0 0 1-.98 0 .881.881 0 0 1-.31-.427l-5.153-15.214a.919.919 0 0 1 .065-.733l3.863-7.02a.854.854 0 0 1 .514-.413.819.819 0 0 1 .643.086Z" clip-rule="evenodd"/>
  <path fill-rule="evenodd" d="M2 14c0-.265.091-.52.253-.707A.81.81 0 0 1 2.865 13h26.27c.23 0 .45.105.612.293.162.187.253.442.253.707 0 .265-.091.52-.253.707a.81.81 0 0 1-.612.293H2.865a.81.81 0 0 1-.612-.293A1.084 1.084 0 0 1 2 14Z" clip-rule="evenodd"/>
</svg>
