<svg xmlns="http://www.w3.org/2000/svg" width="27" height="32" fill="currentColor" viewBox="0 0 27 32">
  <g>
    <path d="M20.972 7.46V2.113C20.972.704 21.81 0 23.488 0s2.517.734 2.517 2.202v5.259l-.899 15.685h-3.19l-.944-15.685ZM23.399 32c-.93 0-1.678-.285-2.248-.854-.539-.57-.809-1.273-.809-2.112 0-.84.285-1.543.854-2.113.57-.599 1.304-.898 2.203-.898.928 0 1.677.284 2.247.853.569.54.854 1.229.854 2.068s-.285 1.558-.854 2.157c-.54.6-1.289.899-2.247.899ZM10.832 7.056c0-1.887-1.034-2.831-3.102-2.831-.689 0-1.333.09-1.932.27-.6.15-.96.344-1.079.584-.09.24-.135.599-.135 1.078V8.54L0 8.225V2.067C2.876.69 5.618 0 8.225 0c2.636 0 4.599.614 5.887 1.843 1.289 1.228 1.933 2.831 1.933 4.809 0 1.947-.405 3.49-1.214 4.629-.779 1.108-1.797 2.127-3.056 3.056-1.258.899-2.052 1.558-2.382 1.978-.33.42-.51 1.048-.54 1.887l-.224 4.944H4.315l-.225-4.719v-.674c0-1.319.24-2.412.719-3.281.54-.959 1.723-2.098 3.55-3.416.99-.719 1.559-1.198 1.708-1.438.15-.27.3-.524.45-.764.21-.45.315-1.049.315-1.798ZM6.471 32c-.929 0-1.678-.285-2.247-.854-.54-.57-.81-1.273-.81-2.112 0-.84.285-1.543.855-2.113.569-.599 1.303-.898 2.202-.898.929 0 1.678.284 2.247.853.57.54.854 1.229.854 2.068s-.285 1.558-.854 2.157c-.54.6-1.288.899-2.247.899Z"/>
  </g>
</svg>
