<svg xmlns="http://www.w3.org/2000/svg" width="32" height="28" fill="currentColor" viewBox="0 0 32 28">
  <g>
    <path d="M16 0c.372 0 .744.094 1.07.281.326.187.601.464.774.812l.005.01 3.378 7.024a.19.19 0 0 0 .072.073.404.404 0 0 0 .184.057h-.001l8.646.652h-.001c.375.027.744.15 1.058.367.315.218.568.526.705.898.138.373.147.78.023 1.159a1.88 1.88 0 0 1-.673.924l-.001-.001-6.55 4.987a.164.164 0 0 0-.056.066l-.002.012v.01l1.966 7.426.032.144c.061.339.022.686-.113 1.004a1.91 1.91 0 0 1-.737.858 2.168 2.168 0 0 1-2.15.09l-.005-.002-7.43-3.934h-.002a.417.417 0 0 0-.192-.045.417.417 0 0 0-.193.044v.001l-7.431 3.934-.006.002a2.168 2.168 0 0 1-2.15-.09 1.911 1.911 0 0 1-.736-.858 1.761 1.761 0 0 1-.081-1.148l1.966-7.425v-.01a.04.04 0 0 0-.002-.013.164.164 0 0 0-.055-.066l-6.55-4.987a1.88 1.88 0 0 1-.675-.924 1.759 1.759 0 0 1 .023-1.158c.137-.372.39-.68.705-.898a2.14 2.14 0 0 1 1.058-.367l8.644-.652.103-.02a.36.36 0 0 0 .081-.037.19.19 0 0 0 .072-.072v-.001l3.378-7.024.005-.01A1.93 1.93 0 0 1 14.93.28 2.157 2.157 0 0 1 16 0Zm0 1.735a.423.423 0 0 0-.207.051.207.207 0 0 0-.082.076l-3.375 7.017v-.001a1.917 1.917 0 0 1-.701.783c-.297.19-.637.299-.984.326h-.001l-8.647.652h-.005a.4.4 0 0 0-.197.065.166.166 0 0 0-.064.071.035.035 0 0 0-.003.01l.002.01a.098.098 0 0 0 .015.026l.043.042.008.006 6.56 4.993.003.002c.28.214.503.503.629.844.126.343.144.713.05 1.067L7.08 25.203l-.001.003a.023.023 0 0 0 0 .008c0 .001 0 .006.003.012a.184.184 0 0 0 .072.075.45.45 0 0 0 .37.034l.046-.02 7.426-3.93.117-.058a2.157 2.157 0 0 1 1.893.057l7.425 3.93a.434.434 0 0 0 .417-.013.184.184 0 0 0 .072-.075l.004-.012-.001-.008v-.003l-1.967-7.428a1.768 1.768 0 0 1 .051-1.067c.126-.34.35-.63.63-.844l.001-.002 6.56-4.993.01-.006a.153.153 0 0 0 .057-.068.035.035 0 0 0 .002-.01l-.003-.01a.165.165 0 0 0-.064-.071.4.4 0 0 0-.197-.064l-.005-.001-8.647-.652h-.001a2.138 2.138 0 0 1-.984-.326 1.918 1.918 0 0 1-.701-.783l-3.376-7.016a.205.205 0 0 0-.08-.076.423.423 0 0 0-.208-.051Z"/>
  </g>
</svg>
