<svg xmlns="http://www.w3.org/2000/svg" width="32" height="32" fill="currentColor" viewBox="0 0 32 32">
  <path fill-rule="evenodd" d="M11.54 12.769a1 1 0 0 1 1-1h6.92a1 1 0 0 1 1 1v6.462a1 1 0 0 1-1 1h-6.92a1 1 0 0 1-1-1v-6.462ZM14 14v4h4v-4h-4Zm11.54-1.231a1 1 0 0 1 1-1H30a1 1 0 0 1 0 2h-3.46a1 1 0 0 1-1-1Zm0 6.461a1 1 0 0 1 1-1H30a1 1 0 0 1 0 2h-3.46a1 1 0 0 1-1-1ZM1 12.769a1 1 0 0 1 1-1h3.46a1 1 0 0 1 0 2H2a1 1 0 0 1-1-1Zm0 6.461a1 1 0 0 1 1-1h3.46a1 1 0 0 1 0 2H2a1 1 0 0 1-1-1Zm18.46 6.54a1 1 0 0 1 1 1V30a1 1 0 0 1-2 0v-3.23a1 1 0 0 1 1-1Zm-6.92 0a1 1 0 0 1 1 1V30a1 1 0 1 1-2 0v-3.23a1 1 0 0 1 1-1ZM19.46 1a1 1 0 0 1 1 1v3.23a1 1 0 0 1-2 0V2a1 1 0 0 1 1-1Zm-6.92 0a1 1 0 0 1 1 1v3.23a1 1 0 1 1-2 0V2a1 1 0 0 1 1-1Z" clip-rule="evenodd"/>
</svg>
