<svg xmlns="http://www.w3.org/2000/svg" width="32" height="14" fill="currentColor" viewBox="0 0 32 14">
  <g>
    <path d="M25.691 13.748V2.636h-3.484V0H32v2.637h-3.484v11.11h-2.825Zm-14.964 0 3.691-7.1L10.972 0h3.107l1.431 3.013c.138.276.251.527.34.753.1.226.162.39.188.49.025-.1.081-.264.17-.49.087-.226.194-.477.32-.753L17.995 0h3.032l-3.446 6.648 3.69 7.1h-3.106l-1.658-3.39a29.829 29.829 0 0 1-.565-1.319 9.45 9.45 0 0 1-.188.547c-.088.238-.2.495-.339.772l-1.657 3.39h-3.032Zm-7.243 0V2.636H0V0h9.793v2.637H6.309v11.11H3.484Z"/>
  </g>
</svg>
