<svg xmlns="http://www.w3.org/2000/svg" width="32" height="32" fill="currentColor" viewBox="0 0 32 32">
  <path fill-rule="evenodd" d="M2.65 5.313a.318.318 0 0 0-.203.064.113.113 0 0 0-.014.015v15.054l4.448-3.138a1 1 0 0 1 .577-.183h14.677c.098 0 .17-.035.203-.065a.111.111 0 0 0 .014-.014V5.392a.11.11 0 0 0-.014-.015.318.318 0 0 0-.203-.064H2.65ZM1.132 3.87a2.314 2.314 0 0 1 1.518-.558h19.485c.547 0 1.095.189 1.518.558.428.373.7.91.7 1.505v11.688c0 .594-.272 1.131-.7 1.504-.423.37-.97.558-1.518.558H7.775l-5.766 4.067a1 1 0 0 1-1.576-.817v-17c0-.594.271-1.132.699-1.505Z" clip-rule="evenodd"/>
  <path fill-rule="evenodd" d="M22.352 10.688a1 1 0 0 1 1-1h6.09c.547 0 1.095.188 1.518.557a2 2 0 0 1 .7 1.505v17a1 1 0 0 1-1.577.817L24.317 25.5H9.957a2.313 2.313 0 0 1-1.518-.558c-.428-.373-.7-.91-.7-1.505v-5.312a1 1 0 1 1 2 0v5.296a.115.115 0 0 0 .014.014c.034.03.106.065.204.065h14.677a1 1 0 0 1 .577.183l4.448 3.138V11.767a.119.119 0 0 0-.014-.015.318.318 0 0 0-.204-.065h-6.088a1 1 0 0 1-1-1Z" clip-rule="evenodd"/>
</svg>
