<svg xmlns="http://www.w3.org/2000/svg" width="33" height="32" fill="currentColor" viewBox="0 0 33 32">
  <path fill-rule="evenodd" d="M11.679 4.042c-5.358 0-9.461 3.763-9.461 8.127 0 4.365 4.103 8.128 9.46 8.128 5.358 0 9.462-3.763 9.462-8.128 0-4.364-4.104-8.127-9.461-8.127ZM.218 12.17c0-5.716 5.263-10.127 11.46-10.127 6.198 0 11.462 4.41 11.462 10.127 0 5.717-5.264 10.128-11.461 10.128-6.198 0-11.461-4.41-11.461-10.128Z" clip-rule="evenodd"/>
  <path fill-rule="evenodd" d="M20.977 12.155c-5.357 0-9.46 3.763-9.46 8.128 0 4.364 4.103 8.127 9.46 8.127 5.358 0 9.461-3.763 9.461-8.127 0-4.365-4.103-8.128-9.46-8.128Zm-11.46 8.128c0-5.717 5.263-10.128 11.46-10.128 6.198 0 11.461 4.41 11.461 10.128 0 5.716-5.263 10.127-11.46 10.127-6.198 0-11.462-4.41-11.462-10.127Z" clip-rule="evenodd"/>
  <path fill-rule="evenodd" d="M11.291 14.874a1 1 0 0 1 1.411-.096l5.08 4.432a1 1 0 0 1-1.315 1.507l-5.08-4.432a1 1 0 0 1-.096-1.41Zm3.487-3.042a1 1 0 0 1 1.411-.097l5.08 4.432a1 1 0 1 1-1.315 1.507l-5.08-4.431a1 1 0 0 1-.096-1.411Z" clip-rule="evenodd"/>
</svg>
