<svg xmlns="http://www.w3.org/2000/svg" width="20" height="32" fill="currentColor" viewBox="0 0 20 32">
  <path d="M7.43 21.895c0-2.274.222-3.91.666-4.906.444-.996 1.384-2.084 2.821-3.263 1.254-1.01 2.21-1.887 2.867-2.631.658-.744.986-1.593.986-2.548 0-1.15-.42-2.105-1.261-2.863s-2.01-1.137-3.51-1.137c-1.559 0-2.744.436-3.554 1.306-.81.87-1.384 1.754-1.72 2.652L0 6.653c.642-1.797 1.82-3.355 3.532-4.674C5.245.659 7.4 0 10 0c3.21 0 5.68.821 7.407 2.463C19.136 4.105 20 6.077 20 8.38c0 1.403-.329 2.603-.986 3.6-.658.997-1.69 2.126-3.097 3.39-1.498 1.319-2.408 2.322-2.73 3.01-.318.688-.478 1.86-.478 3.516H7.43ZM10 32c-1.01 0-1.874-.33-2.592-.99-.72-.66-1.079-1.452-1.079-2.378 0-.927.36-1.72 1.079-2.38.718-.659 1.582-.989 2.591-.989 1.01 0 1.873.33 2.592.99.719.66 1.078 1.452 1.078 2.379 0 .926-.36 1.719-1.078 2.378-.719.66-1.583.99-2.592.99Z"/>
</svg>
