<svg xmlns="http://www.w3.org/2000/svg" width="33" height="32" fill="currentColor" viewBox="0 0 33 32">
  <path fill-rule="evenodd" d="M6.279 3.393A1 1 0 0 1 7.074 3h18.22a1 1 0 0 1 .795.393l6.073 7.949a1 1 0 0 1-.044 1.268L16.934 29.832a1 1 0 0 1-1.5 0L.25 12.61a1 1 0 0 1-.045-1.268l6.074-7.95ZM7.568 5l-5.275 6.903L16.184 27.66l13.89-15.756L24.8 5H7.568Z" clip-rule="evenodd"/>
  <path fill-rule="evenodd" d="M15.162 3.132a1 1 0 0 1 .371 1.365l-4.327 7.551 4.978 14.116 4.978-14.116-4.328-7.55a1 1 0 1 1 1.736-.995l4.555 7.949a1 1 0 0 1 .075.83l-6.073 17.222a1 1 0 0 1-1.886 0L9.167 12.28a1 1 0 0 1 .076-.83l4.555-7.948a1 1 0 0 1 1.364-.37Z" clip-rule="evenodd"/>
  <path fill-rule="evenodd" d="M0 11.949a1 1 0 0 1 1-1h30.368a1 1 0 1 1 0 2H1a1 1 0 0 1-1-1Z" clip-rule="evenodd"/>
</svg>
