<svg xmlns="http://www.w3.org/2000/svg" width="32" height="32" fill="currentColor" viewBox="0 0 32 32">
  <path fill-rule="evenodd" d="M31.454 2.244a1 1 0 0 1 .345.756v18.778a1 1 0 1 1-2 0V4.156L11.933 6.754v17.913a1 1 0 1 1-2 0V5.889a1 1 0 0 1 .856-.99L30.655 2.01a1 1 0 0 1 .799.234Z" clip-rule="evenodd"/>
  <path fill-rule="evenodd" d="M31.789 8.634a1 1 0 0 1-.846 1.133l-19.866 2.89a1 1 0 0 1-.288-1.98l19.866-2.889a1 1 0 0 1 1.134.846ZM5.967 21.333C3.643 21.333 2 22.95 2 24.667S3.643 28 5.967 28c2.323 0 3.966-1.616 3.966-3.333 0-1.718-1.643-3.334-3.966-3.334ZM0 24.667c0-3.07 2.804-5.334 5.967-5.334 3.162 0 5.966 2.264 5.966 5.334C11.933 27.736 9.13 30 5.967 30 2.804 30 0 27.736 0 24.667Zm25.833-6.223c-2.323 0-3.967 1.617-3.967 3.334s1.644 3.333 3.967 3.333c2.323 0 3.966-1.616 3.966-3.333s-1.643-3.334-3.966-3.334Zm-5.967 3.334c0-3.07 2.804-5.334 5.967-5.334s5.966 2.265 5.966 5.334c0 3.069-2.803 5.333-5.966 5.333-3.163 0-5.967-2.264-5.967-5.333Z" clip-rule="evenodd"/>
</svg>
