<svg xmlns="http://www.w3.org/2000/svg" width="30" height="30" fill="currentColor" viewBox="0 0 30 30">
  <g>
    <g>
      <path fill-rule="evenodd" d="M26 1.5H4A2.5 2.5 0 0 0 1.5 4v22A2.5 2.5 0 0 0 4 28.5h22a2.5 2.5 0 0 0 2.5-2.5V4A2.5 2.5 0 0 0 26 1.5ZM4 0a4 4 0 0 0-4 4v22a4 4 0 0 0 4 4h22a4 4 0 0 0 4-4V4a4 4 0 0 0-4-4H4Z" clip-rule="evenodd"/>
      <path d="M15.028 25c-1.228 0-2.298-.233-3.21-.7a5.073 5.073 0 0 1-2.092-2.016C9.242 21.388 9 20.334 9 19.12V9.88c0-1.232.242-2.287.726-3.164A5.073 5.073 0 0 1 11.819 4.7c.911-.467 1.981-.7 3.209-.7s2.288.243 3.181.728a4.897 4.897 0 0 1 2.065 2.016c.484.877.726 1.923.726 3.136h-2.512c0-1.157-.307-2.044-.92-2.66-.596-.635-1.442-.952-2.54-.952s-1.963.308-2.595.924c-.614.616-.921 1.503-.921 2.66v9.268c0 1.157.307 2.053.92 2.688.633.616 1.498.924 2.596.924s1.944-.308 2.54-.924c.613-.635.92-1.53.92-2.688H21c0 1.195-.242 2.24-.726 3.136A5.074 5.074 0 0 1 18.21 24.3c-.893.467-1.953.7-3.181.7Z"/>
    </g>
  </g>
</svg>
