<svg xmlns="http://www.w3.org/2000/svg" width="22" height="25" fill="currentColor" viewBox="0 0 22 25">
  <g>
    <g>
      <path fill-rule="evenodd" d="M2.17 3.5c-.437.339-.545.61-.545.786 0 .176.108.447.544.785.428.332 1.086.659 1.955.944 1.731.57 4.162.931 6.876.931 2.714 0 5.145-.362 6.876-.93.869-.286 1.527-.613 1.955-.945.436-.338.544-.61.544-.785 0-.176-.108-.447-.544-.786-.428-.332-1.086-.658-1.955-.944-1.731-.569-4.162-.931-6.876-.931-2.714 0-5.145.362-6.876.931-.869.286-1.527.612-1.955.944Zm1.563-2.13C5.622.749 8.19.375 11 .375c2.81 0 5.378.373 7.266.994.94.309 1.747.69 2.332 1.144.576.448 1.027 1.042 1.027 1.773 0 .73-.451 1.325-1.027 1.772-.585.454-1.391.836-2.332 1.145-1.888.62-4.457.993-7.266.993-2.81 0-5.378-.373-7.266-.993-.94-.31-1.747-.69-2.332-1.145C.826 5.611.375 5.017.375 4.286c0-.731.451-1.325 1.027-1.773.585-.454 1.391-.835 2.332-1.144Zm.393 21.064c1.73.575 4.16.941 6.874.941 2.713 0 5.143-.366 6.874-.941.869-.289 1.526-.619 1.954-.955.435-.341.547-.617.547-.801h1.25c0 .733-.448 1.331-1.025 1.784-.584.46-1.39.845-2.332 1.158-1.889.627-4.458 1.005-7.268 1.005-2.81 0-5.38-.378-7.268-1.005-.941-.313-1.748-.699-2.332-1.158C.823 22.01.375 21.411.375 20.678h1.25c0 .184.112.46.547.801.428.336 1.085.666 1.954.955Zm0-7.886c1.73.575 4.16.941 6.874.941 2.713 0 5.143-.366 6.874-.94.869-.29 1.526-.62 1.954-.955.435-.342.547-.618.547-.802h1.25c0 .733-.448 1.332-1.025 1.785-.584.459-1.39.845-2.332 1.157-1.889.628-4.458 1.005-7.268 1.005-2.81 0-5.38-.377-7.268-1.005-.941-.312-1.748-.698-2.332-1.157-.577-.453-1.025-1.052-1.025-1.785h1.25c0 .184.112.46.547.802.428.336 1.085.666 1.954.954Z" clip-rule="evenodd"/>
      <path fill-rule="evenodd" d="M21 3.66c.345 0 .625.28.625.626v16.428a.625.625 0 1 1-1.25 0V4.286c0-.345.28-.625.625-.625Zm-20 0c.345 0 .625.28.625.626v16.428a.625.625 0 1 1-1.25 0V4.286c0-.345.28-.625.625-.625Z" clip-rule="evenodd"/>
      <path fill-rule="evenodd" d="M3.535 10.534c1.373.57 3.305.933 5.465.933a.5.5 0 1 1 0 1c-2.258 0-4.326-.378-5.848-1.009-.76-.315-1.408-.702-1.873-1.159C.812 9.842.5 9.286.5 8.652h1c0 .282.136.598.479.933.344.338.868.664 1.556.95Zm0 7.652c1.373.57 3.305.933 5.465.933a.5.5 0 1 1 0 1c-2.258 0-4.326-.378-5.848-1.01-.76-.314-1.408-.702-1.873-1.158C.812 17.494.5 16.936.5 16.303h1c0 .283.136.598.479.934.344.337.868.664 1.556.95Z" clip-rule="evenodd"/>
    </g>
  </g>
</svg>
