<svg xmlns="http://www.w3.org/2000/svg" width="22" height="28" fill="currentColor" viewBox="0 0 22 28">
  <g>
    <g>
      <path fill-rule="evenodd" d="M2.004 4.033c.016.041.086.169.365.368.381.274.998.562 1.85.82 1.692.513 4.09.846 6.781.846s5.089-.333 6.78-.846c.853-.258 1.47-.546 1.851-.82.279-.2.349-.327.365-.368-.016-.04-.086-.168-.365-.368-.381-.273-.998-.561-1.85-.82C16.089 2.332 13.69 2 11 2s-5.089.332-6.78.845c-.853.259-1.47.547-1.851.82-.279.2-.349.328-.365.368ZM3.639.931C5.566.347 8.169 0 11 0c2.832 0 5.434.347 7.361.931.958.29 1.805.657 2.436 1.109C21.403 2.475 22 3.135 22 4.033c0 .899-.597 1.559-1.203 1.994-.63.452-1.478.818-2.436 1.108-1.927.585-4.53.932-7.361.932-2.832 0-5.434-.347-7.361-.932-.958-.29-1.805-.656-2.436-1.108C.597 5.592 0 4.932 0 4.033c0-.898.597-1.558 1.203-1.993.63-.452 1.478-.818 2.436-1.109Zm.581 24.223C5.91 25.668 8.308 26 11 26s5.089-.332 6.78-.846c.853-.258 1.47-.546 1.851-.82.343-.245.37-.382.37-.382l-.001.015h2c0 .898-.597 1.558-1.203 1.993-.63.452-1.478.818-2.436 1.108-1.927.585-4.53.932-7.361.932-2.832 0-5.434-.347-7.361-.932-.958-.29-1.805-.656-2.436-1.108C.597 25.525 0 24.865 0 23.967h2v-.015s.026.137.369.383c.381.273.998.561 1.85.82Zm0-6.199c1.691.513 4.089.845 6.78.845s5.089-.332 6.78-.845c.853-.259 1.47-.547 1.851-.82.343-.246.37-.383.37-.383l-.001.015h2c0 .898-.597 1.558-1.203 1.993-.63.452-1.478.818-2.436 1.108-1.927.585-4.53.932-7.361.932-2.832 0-5.434-.347-7.361-.932-.958-.29-1.805-.656-2.436-1.108C.597 19.325 0 18.665 0 17.767h2v-.015s.026.137.369.383c.381.273.998.561 1.85.82Zm0-7.2c1.691.513 4.089.845 6.78.845s5.089-.332 6.78-.845c.853-.259 1.47-.547 1.851-.82.343-.246.37-.383.37-.383l-.001.015h2c0 .898-.597 1.558-1.203 1.993-.63.452-1.478.818-2.436 1.108-1.927.585-4.53.932-7.361.932-2.832 0-5.434-.347-7.361-.931-.958-.29-1.805-.657-2.436-1.109C.597 12.125 0 11.465 0 10.567h2v-.014s.026.136.369.382c.381.273.998.561 1.85.82Z" clip-rule="evenodd"/>
      <path fill-rule="evenodd" d="M21 3.467a1 1 0 0 1 1 1V24.4a1 1 0 1 1-2 0V4.467a1 1 0 0 1 1-1Zm-20 0a1 1 0 0 1 1 1V24.4a1 1 0 1 1-2 0V4.467a1 1 0 0 1 1-1Z" clip-rule="evenodd"/>
      <path fill-rule="evenodd" d="M3.52 8.673c1.378.522 3.315.854 5.48.854a.5.5 0 1 1 0 1c-2.254 0-4.316-.344-5.834-.919-.757-.286-1.404-.64-1.87-1.057C.828 8.134.5 7.611.5 7h1c0 .225.119.499.462.806.343.307.867.606 1.558.867Zm0 6.986c1.378.522 3.315.855 5.48.855a.5.5 0 0 1 0 1c-2.254 0-4.316-.345-5.834-.92-.757-.286-1.404-.639-1.87-1.057-.467-.417-.796-.94-.796-1.55h1c0 .225.119.498.462.805.343.307.867.606 1.558.867Zm0 6.987c1.378.521 3.315.854 5.48.854a.5.5 0 0 1 0 1c-2.254 0-4.316-.345-5.834-.92-.757-.285-1.404-.639-1.87-1.056-.467-.418-.796-.94-.796-1.551h1c0 .225.119.498.462.805.343.307.867.606 1.558.868Z" clip-rule="evenodd"/>
    </g>
  </g>
</svg>
