<svg xmlns="http://www.w3.org/2000/svg" width="33" height="32" fill="currentColor" viewBox="0 0 33 32">
  <path fill-rule="evenodd" d="M2.933 7.63v-.002.002Zm.003-.005a.125.125 0 0 1 .019-.02.33.33 0 0 1 .215-.069h27.147a.33.33 0 0 1 .215.07c.01.008.016.015.019.019v17.202a.125.125 0 0 1-.019.02.33.33 0 0 1-.215.069H3.17a.33.33 0 0 1-.215-.069.124.124 0 0 1-.02-.02V7.625Zm-.003 17.197v.002-.002Zm27.621 0-.001.002.001-.002Zm0-17.192-.001-.002.001.002ZM.936 7.613c0-1.27 1.132-2.077 2.234-2.077h27.147c1.101 0 2.234.806 2.234 2.077V24.84c0 1.27-1.133 2.077-2.234 2.077H3.17c-1.102 0-2.234-.806-2.234-2.077V7.613Z" clip-rule="evenodd"/>
  <path fill-rule="evenodd" d="M11.807 5.536a1 1 0 0 1 1 1v19.38a1 1 0 1 1-2 0V6.536a1 1 0 0 1 1-1Zm9.873 0a1 1 0 0 1 1 1v19.38a1 1 0 1 1-2 0V6.536a1 1 0 0 1 1-1Z" clip-rule="evenodd"/>
  <path fill-rule="evenodd" d="M.936 12.996a1 1 0 0 1 1-1H31.55a1 1 0 1 1 0 2H1.936a1 1 0 0 1-1-1Zm0 6.46a1 1 0 0 1 1-1H31.55a1 1 0 1 1 0 2H1.936a1 1 0 0 1-1-1Z" clip-rule="evenodd"/>
</svg>
