<svg xmlns="http://www.w3.org/2000/svg" width="32" height="32" fill="currentColor" viewBox="0 0 32 32">
  <path d="M4 7a1 1 0 0 1 1-1h4a1 1 0 0 1 0 2H6v6h2a1 1 0 1 1 0 2H6v8a1 1 0 1 1-2 0V7Zm9 18a2.5 2.5 0 1 0 0-5 2.5 2.5 0 0 0 0 5Z"/>
  <path fill-rule="evenodd" d="M20 6a4 4 0 0 0-4 4v3a1 1 0 1 0 2 0v-3a2 2 0 1 1 4 0v4.5a.5.5 0 0 1-.5.5h-3a3.5 3.5 0 1 0 0 7H20a4 4 0 0 0 4-4v-8a4 4 0 0 0-4-4Zm1.5 11h-3a1.5 1.5 0 0 0 0 3H20a2 2 0 0 0 2-2v-1h-1.5l1 1-1-1Z" clip-rule="evenodd"/>
  <path d="M28 7a1 1 0 1 0-2 0v11a3 3 0 1 0 2 0V7Z"/>
</svg>
