<svg xmlns="http://www.w3.org/2000/svg" width="32" height="29" fill="currentColor" viewBox="0 0 32 29">
  <g>
    <path d="M11.06 15.044c1.112 0 2.013-.786 2.013-1.755 0-.97-.901-1.756-2.012-1.756-1.112 0-2.012.786-2.012 1.756s.9 1.755 2.012 1.755Zm9.39 0c1.111 0 2.012-.786 2.012-1.755 0-.97-.9-1.756-2.012-1.756-1.111 0-2.012.786-2.012 1.756s.901 1.755 2.012 1.755Z"/>
    <path d="M29.51 13.874c0-3.102-1.41-6.109-3.978-8.35C22.96 3.28 19.445 2 15.756 2S8.552 3.28 5.979 5.524C3.411 7.765 2 10.772 2 13.874v12.102l3.337-2.382.136-.081a1 1 0 0 1 1.026.08l4.338 3.096 4.338-3.095.135-.081a1 1 0 0 1 1.027.08l4.337 3.096 4.338-3.095.136-.081a1 1 0 0 1 1.026.08l3.337 2.383V13.874Zm2 14.045a1 1 0 0 1-1.58.813l-4.338-3.096-4.338 3.096a.999.999 0 0 1-1.161 0l-4.337-3.096-4.337 3.096a1 1 0 0 1-1.162 0l-4.339-3.096-4.337 3.096A1 1 0 0 1 0 27.92V13.874c0-3.727 1.698-7.268 4.664-9.856C7.626 1.433 11.618 0 15.756 0c4.138 0 8.129 1.433 11.09 4.018 2.967 2.588 4.665 6.13 4.665 9.856v14.045Z"/>
  </g>
</svg>
