<svg xmlns="http://www.w3.org/2000/svg" width="37" height="28" fill="currentColor" viewBox="0 0 37 28">
  <g>
    <g>
      <path d="M34.879 8.316c0-.809-.183-1.614-.542-2.37a6.336 6.336 0 0 0-1.571-2.05 7.561 7.561 0 0 0-2.404-1.399A8.46 8.46 0 0 0 27.493 2a8.45 8.45 0 0 0-2.869.498 7.557 7.557 0 0 0-2.402 1.398l-.028.024-3.125 2.539a1 1 0 0 1-1.261 0l-3.125-2.54c-.01-.006-.018-.014-.027-.022-1.378-1.201-3.272-1.896-5.271-1.896-2 0-3.894.695-5.272 1.896C2.74 5.096 2 6.69 2 8.317c0 1.525.65 3.021 1.862 4.19l.25.23.006.004 14.32 12.673L32.76 12.741l.005-.005a6.34 6.34 0 0 0 1.572-2.049c.36-.756.542-1.562.542-2.37Zm2 0c0 1.113-.252 2.21-.735 3.229a8.335 8.335 0 0 1-2.06 2.692l.001.001L19.102 27.5a1 1 0 0 1-1.326 0L2.792 14.239v-.002C1.025 12.692 0 10.567 0 8.317c0-2.253 1.028-4.38 2.799-5.926C4.566.849 6.937 0 9.385 0c2.435 0 4.794.84 6.558 2.366l2.496 2.028 2.495-2.028a9.562 9.562 0 0 1 3.01-1.75A10.46 10.46 0 0 1 27.494 0c1.214 0 2.42.209 3.548.616A9.559 9.559 0 0 1 34.08 2.39a8.338 8.338 0 0 1 2.065 2.698 7.515 7.515 0 0 1 .734 3.228Z"/>
    </g>
  </g>
</svg>
