<svg xmlns="http://www.w3.org/2000/svg" width="32" height="32" fill="currentColor" viewBox="0 0 32 32">
  <path fill-rule="evenodd" d="M20.5 6a1.5 1.5 0 1 0 0 3 1.5 1.5 0 0 0 0-3ZM17 7.5a3.5 3.5 0 1 1 7 0 3.5 3.5 0 0 1-7 0Zm-6 3.688L2.653 27.125h16.694L11 11.188ZM9.961 9.43A1.916 1.916 0 0 1 11 9.123c.373 0 .731.11 1.039.308.305.197.546.472.71.785l9.137 17.445A1 1 0 0 1 21 29.125H1a1 1 0 0 1-.886-1.464l9.137-17.444v-.001c.164-.313.405-.588.71-.785Z" clip-rule="evenodd"/>
  <path fill-rule="evenodd" d="M5.294 18a1 1 0 0 1 1-1h9.412a1 1 0 1 1 0 2H6.294a1 1 0 0 1-1-1Zm18.025-2.31-4.108 7.798a1 1 0 0 1-1.77-.932l4.133-7.846a2.07 2.07 0 0 1 .71-.78 1.916 1.916 0 0 1 1.035-.305c.37 0 .728.11 1.034.306.305.195.546.467.71.779l6.822 12.949A1 1 0 0 1 31 29.125H21a1 1 0 0 1 0-2h8.343l-6.024-11.436Z" clip-rule="evenodd"/>
</svg>
