<svg xmlns="http://www.w3.org/2000/svg" width="32" height="32" fill="currentColor" viewBox="0 0 32 32">
  <path d="M7 6a1 1 0 0 0-2 0v2H4a1 1 0 0 0 0 2h1v14H4a1 1 0 1 0 0 2h4a1 1 0 1 0 0-2H7V10h1a1 1 0 0 0 0-2H7V6Z"/>
  <path fill-rule="evenodd" d="M16 6a4 4 0 0 0-4 4v2a1 1 0 1 0 2 0v-2a2 2 0 1 1 4 0v2.5a.5.5 0 0 1-.5.5h-1a3.5 3.5 0 1 0 0 7h1a.5.5 0 0 1 .5.5V22a2 2 0 1 1-4 0v-1a1 1 0 1 0-2 0v1a4 4 0 0 0 8 0v-1.5a2.5 2.5 0 0 0-2.5-2.5h-1a1.5 1.5 0 0 1 0-3h1a2.5 2.5 0 0 0 2.5-2.5V10a4 4 0 0 0-4-4Z" clip-rule="evenodd"/>
  <path fill-rule="evenodd" d="M28 6a4 4 0 0 0-4 4v12a4 4 0 0 0 8 0V10a4 4 0 0 0-4-4Zm-2 4a2 2 0 1 1 4 0v12a2 2 0 1 1-4 0V10Z" clip-rule="evenodd"/>
</svg>
