<svg xmlns="http://www.w3.org/2000/svg" width="33" height="24" fill="currentColor" viewBox="0 0 33 24">
  <path fill-rule="evenodd" d="M7.276 7.086a1 1 0 0 1 1.343-.443l8.124 4.094 8.125-4.094a1 1 0 0 1 .9 1.786l-8.575 4.32a1 1 0 0 1-.9 0L7.72 8.43a1 1 0 0 1-.443-1.343Z" clip-rule="evenodd"/>
  <path fill-rule="evenodd" d="M16.743 10.856a1 1 0 0 1 1 1v8.523a1 1 0 1 1-2 0v-8.523a1 1 0 0 1 1-1ZM24.381 1a1 1 0 0 1 1-1h6.17a1 1 0 0 1 1 1v5.383a1 1 0 1 1-2 0V2h-5.17a1 1 0 0 1-1-1ZM1.936 16.15a1 1 0 0 1 1 1v4.383h5.17a1 1 0 1 1 0 2h-6.17a1 1 0 0 1-1-1v-5.384a1 1 0 0 1 1-1Zm29.614 0a1 1 0 0 1 1 1v5.383a1 1 0 0 1-1 1h-6.169a1 1 0 1 1 0-2h5.17v-4.384a1 1 0 0 1 1-1ZM.936 1a1 1 0 0 1 1-1h6.17a1 1 0 1 1 0 2h-5.17v4.383a1 1 0 1 1-2 0V1Z" clip-rule="evenodd"/>
  <path fill-rule="evenodd" d="M17.023 2.269 8 7.215v8.824l9 4.704 9-4.704V6.96l-8.977-4.69ZM28 5.75 17 0 6 6.03v11.22L17 23l11-5.75V5.75Z" clip-rule="evenodd"/>
</svg>
