<svg xmlns="http://www.w3.org/2000/svg" width="36" height="32" fill="currentColor" viewBox="0 0 36 32">
  <g>
    <path d="M25.83.246a1 1 0 0 1 1.314 1.508l-6.707 5.851A1 1 0 1 1 19.122 6.1L25.83.246Zm8.048 7.022a1 1 0 0 1 1.315 1.508l-6.707 5.852a1 1 0 0 1-1.315-1.507l6.707-5.853Z"/>
    <path d="M13.66 1.513a1 1 0 0 1 1.411-.096l18.78 16.385a1 1 0 0 1-1.315 1.507L13.756 2.924a1 1 0 0 1-.096-1.41Z"/>
    <path d="M30.524 16.047a1 1 0 0 1 1.316 1.507l-9.831 8.577c-1.201 1.048-2.804 1.617-4.452 1.617-1.647 0-3.25-.57-4.45-1.617l-7.169-6.254c-1.205-1.051-1.914-2.51-1.914-4.063 0-1.554.71-3.012 1.914-4.064l9.83-8.578a1 1 0 0 1 1.316 1.508l-9.831 8.577c-.807.704-1.229 1.628-1.229 2.557 0 .928.422 1.852 1.229 2.556l7.168 6.254c.811.708 1.938 1.124 3.136 1.124 1.199 0 2.325-.416 3.136-1.124l9.831-8.577Z"/>
    <path d="M9.522 21.496a1 1 0 0 1 1.316 1.508l-9.18 8.01a1 1 0 0 1-1.315-1.508l9.18-8.01Z"/>
  </g>
</svg>
