<svg xmlns="http://www.w3.org/2000/svg" width="32" height="32" fill="currentColor" viewBox="0 0 32 32">
  <path d="M15.8 31c-1.425 0-2.7-.15-3.824-.45-1.097-.3-2.015-.708-2.755-1.226-.74-.518-1.303-1.117-1.686-1.798A4.852 4.852 0 0 1 7 25.319c0-.709.137-1.28.411-1.717a2.664 2.664 0 0 1 1.234-1.022c.521-.245 1.11-.367 1.768-.367.028 1.989.26 3.596.7 4.822.438 1.227 1.082 2.126 1.933 2.698.877.572 1.946.858 3.207.858 1.727 0 3.126-.49 4.195-1.471 1.097-.981 1.645-2.425 1.645-4.332 0-1.254-.247-2.262-.74-3.025-.494-.79-1.248-1.499-2.262-2.125-1.015-.627-2.33-1.295-3.948-2.003a35.297 35.297 0 0 1-2.879-1.43 12.425 12.425 0 0 1-2.426-1.799 7.517 7.517 0 0 1-1.686-2.411c-.384-.954-.576-2.044-.576-3.27 0-1.662.37-3.066 1.11-4.21.74-1.144 1.796-2.016 3.167-2.616C13.25 1.3 14.883 1 16.747 1c1.672 0 3.098.218 4.277.654 1.206.436 2.138 1.008 2.796 1.717.686.708 1.029 1.485 1.029 2.33 0 .844-.343 1.525-1.029 2.043-.658.49-1.562.736-2.714.736 0-1.58-.164-2.889-.493-3.924-.302-1.036-.796-1.812-1.481-2.33s-1.604-.776-2.755-.776a5.91 5.91 0 0 0-2.591.572c-.768.381-1.371.967-1.81 1.757-.439.763-.658 1.771-.658 3.025 0 1.253.247 2.289.74 3.106.494.817 1.248 1.54 2.262 2.166 1.015.6 2.317 1.267 3.907 2.003 1.536.654 2.88 1.349 4.03 2.084 1.18.709 2.098 1.58 2.756 2.616.658 1.036.987 2.344.987 3.924 0 1.69-.398 3.16-1.193 4.414-.795 1.226-1.96 2.18-3.495 2.861C19.804 30.66 17.967 31 15.8 31Z"/>
  <path fill-rule="evenodd" d="m11.719 31.517-.006-.002c-1.18-.323-2.21-.773-3.065-1.371-.844-.59-1.517-1.297-1.985-2.127l-.011-.02-.01-.022A5.851 5.851 0 0 1 6 25.32c0-.829.16-1.604.565-2.25l.004-.006.004-.006a3.66 3.66 0 0 1 1.666-1.39c.666-.31 1.398-.455 2.174-.455h.987l.013.987c.027 1.93.254 3.417.641 4.5.385 1.076.916 1.776 1.544 2.2.683.444 1.551.692 2.655.692 1.528 0 2.668-.428 3.519-1.208l.01-.008c.825-.74 1.311-1.875 1.311-3.587 0-1.132-.224-1.931-.58-2.482l-.004-.007-.004-.006c-.393-.629-1.02-1.237-1.94-1.805-.96-.593-2.23-1.24-3.823-1.937l-.003-.001a36.34 36.34 0 0 1-2.96-1.471l-.012-.007a13.424 13.424 0 0 1-2.62-1.943 8.518 8.518 0 0 1-1.91-2.729l-.007-.016-.006-.016c-.44-1.093-.648-2.313-.648-3.643 0-1.812.405-3.415 1.27-4.753.858-1.325 2.074-2.319 3.606-2.989L11.46.98C13.006.317 14.777 0 16.747 0c1.752 0 3.301.228 4.62.715 1.304.471 2.385 1.115 3.18 1.968.828.86 1.302 1.873 1.302 3.017 0 1.165-.495 2.139-1.426 2.842l-.005.004c-.888.662-2.03.934-3.312.934h-1v-1c0-1.52-.16-2.717-.447-3.621l-.003-.012-.003-.011c-.258-.883-.65-1.454-1.124-1.812l.603-.798c.685.518 1.179 1.294 1.48 2.33.33 1.035.494 2.343.494 3.924.357 0 .69-.024 1-.071.689-.105 1.26-.327 1.714-.665.686-.518 1.029-1.199 1.029-2.044 0-.844-.343-1.621-1.029-2.33-.658-.708-1.59-1.28-2.796-1.716a9.61 9.61 0 0 0-1.581-.428A14.813 14.813 0 0 0 16.747 1c-.125 0-.248.001-.37.004a13.532 13.532 0 0 0-2.907.36l-.01.003a10.633 10.633 0 0 0-1.607.532c-1.371.6-2.427 1.472-3.167 2.616-.74 1.144-1.11 2.548-1.11 4.21 0 1.226.192 2.316.576 3.27.41.926.973 1.73 1.686 2.411s1.521 1.28 2.426 1.798c.932.518 1.892.995 2.879 1.43 1.617.71 2.933 1.377 3.948 2.004 1.014.626 1.768 1.335 2.262 2.125.493.763.74 1.771.74 3.024 0 1.908-.548 3.352-1.645 4.333a5.63 5.63 0 0 1-.276.236c-1.03.824-2.336 1.235-3.919 1.235-.153 0-.304-.004-.452-.013-1.033-.059-1.926-.325-2.681-.798a4.046 4.046 0 0 1-.074-.047c-.85-.572-1.495-1.471-1.933-2.698-.44-1.226-.672-2.833-.7-4.823a4.457 4.457 0 0 0-.998.106 3.71 3.71 0 0 0-.77.262c-.52.218-.932.559-1.234 1.022C7.137 24.038 7 24.61 7 25.32c0 .763.178 1.498.535 2.207.383.681.946 1.28 1.686 1.798s1.659.927 2.755 1.226c.253.068.514.128.782.18.924.18 1.938.27 3.043.27.152 0 .303-.002.452-.005 1.674-.038 3.143-.288 4.406-.75.224-.083.442-.171.653-.267 1.535-.681 2.7-1.635 3.495-2.86.796-1.254 1.193-2.726 1.193-4.415 0-1.58-.329-2.888-.987-3.924-.658-1.035-1.577-1.907-2.755-2.616-1.152-.735-2.495-1.43-4.03-2.084-1.59-.736-2.893-1.403-3.908-2.003-1.014-.626-1.768-1.349-2.262-2.166-.493-.817-.74-1.853-.74-3.106 0-1.254.22-2.262.658-3.025a4.315 4.315 0 0 1 1.013-1.24c.242-.201.508-.374.797-.517a5.91 5.91 0 0 1 2.59-.572c.127 0 .25.003.37.009.944.049 1.715.287 2.316.716l.07.051-.603.798c-.46-.348-1.145-.574-2.152-.574-.789 0-1.502.16-2.152.47-.574.287-1.03.724-1.374 1.345l-.004.006-.004.007c-.322.56-.525 1.377-.525 2.526 0 1.127.222 1.97.597 2.59.392.65 1.015 1.264 1.923 1.826.971.574 2.234 1.222 3.795 1.945 1.565.667 2.95 1.382 4.152 2.149 1.29.777 2.323 1.751 3.072 2.929.785 1.236 1.143 2.744 1.143 4.46 0 1.852-.438 3.515-1.348 4.95l-.006.008c-.915 1.412-2.242 2.482-3.925 3.23C20.05 31.645 18.066 32 15.8 32c-1.494 0-2.858-.157-4.082-.483Z" clip-rule="evenodd"/>
</svg>
