<svg xmlns="http://www.w3.org/2000/svg" width="32" height="32" fill="currentColor" viewBox="0 0 32 32">
  <path d="M9.975 31v-.42h.89c.677 0 1.242-.098 1.694-.294.48-.196.834-.505 1.06-.925.254-.448.381-1.022.381-1.722V1.42h-3.263c-1.44 0-2.613.182-3.517.546a3.53 3.53 0 0 0-1.949 1.765c-.395.812-.635 1.919-.72 3.32l-.127 1.512H4L4.297 1h24.449L29 8.563h-.424l-.085-1.513c-.084-1.4-.338-2.507-.762-3.319a3.53 3.53 0 0 0-1.95-1.765c-.875-.364-2.047-.546-3.516-.546h-3.305v26.22c0 .7.113 1.274.339 1.722.226.42.579.729 1.059.925.48.196 1.045.294 1.695.294h.89V31H9.975Z"/>
  <path fill-rule="evenodd" d="M8.975 32v-2.42h1.89c.589 0 1.008-.086 1.296-.212l.01-.004.01-.004c.286-.117.45-.275.557-.472l.005-.01.006-.01c.143-.253.251-.642.251-1.23V2.42h-2.263c-1.368 0-2.4.175-3.143.474l-.008.003-.007.003c-.64.246-1.1.66-1.412 1.275-.313.647-.537 1.606-.618 2.936v.011l-.206 2.441H2.96L3.335 0h26.378l.321 9.563h-2.403l-.138-2.452v-.003c-.08-1.326-.318-2.276-.65-2.914l-.007-.013A2.532 2.532 0 0 0 25.42 2.9l-.013-.005-.012-.005c-.706-.294-1.732-.47-3.133-.47h-2.305v25.22c0 .593.095.995.226 1.26.106.192.27.347.55.46.334.137.765.22 1.317.22h1.89V32H8.975Zm10.322-2.639c-.226-.448-.34-1.022-.34-1.722V1.42h3.306c1.469 0 2.641.182 3.517.546l.084.034a3.523 3.523 0 0 1 1.865 1.731c.04.077.079.157.116.24.354.785.57 1.812.646 3.08l.085 1.512H29L28.746 1H4.296L4 8.563h.424L4.55 7.05c.078-1.292.289-2.335.632-3.126A3.524 3.524 0 0 1 7.22 1.967c.903-.365 2.076-.547 3.516-.547H14v26.22c0 .7-.127 1.274-.381 1.722-.137.254-.32.467-.549.639-.15.113-.32.208-.51.286-.453.196-1.018.294-1.696.294h-.89V31h12.967v-.42h-.89c-.65 0-1.215-.098-1.695-.294a2.282 2.282 0 0 1-.51-.286 1.934 1.934 0 0 1-.55-.639Z" clip-rule="evenodd"/>
</svg>
