<svg xmlns="http://www.w3.org/2000/svg" width="33" height="32" fill="currentColor" viewBox="0 0 33 32">
  <path fill-rule="evenodd" d="M3.13 5a.3.3 0 0 0-.2.07.137.137 0 0 0-.033.043.055.055 0 0 0-.006.023v18.182c0 .005.001.013.006.023s.014.026.033.043a.3.3 0 0 0 .2.07h9.213c.37 0 .74.088 1.071.26.33.171.617.423.826.74l2.297 3.447a.198.198 0 0 0 .076.064.329.329 0 0 0 .15.035.329.329 0 0 0 .15-.035.199.199 0 0 0 .076-.064l.004-.007 2.29-3.437.003-.003c.208-.317.495-.569.826-.74.33-.172.7-.26 1.07-.26h9.213a.3.3 0 0 0 .2-.07.139.139 0 0 0 .034-.043.056.056 0 0 0 .005-.023V5.136a.056.056 0 0 0-.005-.023.138.138 0 0 0-.033-.043.3.3 0 0 0-.2-.07H3.13ZM1.578 3.596A2.3 2.3 0 0 1 3.13 3h27.265c.567 0 1.127.206 1.552.596.428.392.687.944.687 1.54v18.182a2.09 2.09 0 0 1-.687 1.54c-.425.39-.985.596-1.552.596h-9.213a.33.33 0 0 0-.15.035.199.199 0 0 0-.076.064l-.004.007L18.66 29a2.197 2.197 0 0 1-.826.74 2.327 2.327 0 0 1-2.143 0 2.197 2.197 0 0 1-.825-.74l-2.297-3.447a.199.199 0 0 0-.076-.064.329.329 0 0 0-.15-.035H3.13a2.299 2.299 0 0 1-1.552-.596 2.09 2.09 0 0 1-.687-1.54V5.136c0-.596.26-1.148.687-1.54Z" clip-rule="evenodd"/>
  <path fill-rule="evenodd" d="M10.806 11.954a1 1 0 0 1 1-1h9.914a1 1 0 0 1 0 2h-9.914a1 1 0 0 1-1-1Zm0 4.546a1 1 0 0 1 1-1h9.914a1 1 0 1 1 0 2h-9.914a1 1 0 0 1-1-1Z" clip-rule="evenodd"/>
</svg>
