<svg xmlns="http://www.w3.org/2000/svg" width="28" height="28" fill="currentColor" viewBox="0 0 28 28">
  <path fill-rule="evenodd" d="M0 6.041a1 1 0 0 1 1-1h26a1 1 0 1 1 0 2H1a1 1 0 0 1-1-1Z" clip-rule="evenodd"/>
  <path fill-rule="evenodd" d="M3.889 5.041a1 1 0 0 1 1 1v17.644c0 .254.16.63.56.98.39.34.887.54 1.329.54h14.444c.442 0 .938-.2 1.329-.54.4-.35.56-.726.56-.98V6.041a1 1 0 1 1 2 0v17.644c0 1.007-.562 1.89-1.245 2.486-.693.605-1.642 1.035-2.644 1.035H6.778c-1.002 0-1.951-.43-2.644-1.035-.683-.596-1.245-1.48-1.245-2.486V6.041a1 1 0 0 1 1-1Z" clip-rule="evenodd"/>
  <path fill-rule="evenodd" d="M9.782 2.541c-.4.35-.56.726-.56.98v2.52a1 1 0 0 1-2 0v-2.52c0-1.007.562-1.89 1.246-2.487C9.16.43 10.108 0 11.11 0h5.778c1.002 0 1.95.43 2.643 1.034.684.596 1.246 1.48 1.246 2.487v2.52a1 1 0 1 1-2 0v-2.52c0-.254-.16-.63-.56-.98-.391-.34-.887-.541-1.33-.541H11.11c-.442 0-.938.2-1.329.541Zm1.329 8.801a1 1 0 0 1 1 1v7.562a1 1 0 1 1-2 0v-7.562a1 1 0 0 1 1-1Zm5.778 0a1 1 0 0 1 1 1v7.562a1 1 0 1 1-2 0v-7.562a1 1 0 0 1 1-1Z" clip-rule="evenodd"/>
</svg>
