<svg xmlns="http://www.w3.org/2000/svg" width="35" height="31" fill="currentColor" viewBox="0 0 35 31">
  <g>
    <path d="M16.097 5.682V1a1 1 0 1 1 2 0v4.682a1 1 0 0 1-2 0ZM27.821 4.36a1 1 0 0 1 1.316 1.508l-3.795 3.31a1 1 0 0 1-1.315-1.507l3.794-3.311Zm5.373 9.684a1 1 0 1 1 0 2h-5.366a1 1 0 1 1 0-2h5.366Zm-9.264 6.963a1 1 0 0 1 1.412-.096l3.795 3.311a1 1 0 0 1-1.316 1.507l-3.794-3.31a1 1 0 0 1-.097-1.412Zm-7.833 8.083v-4.683a1 1 0 1 1 2 0v4.682a1 1 0 0 1-2 0Zm-7.245-8.18a1 1 0 0 1 1.315 1.508l-3.795 3.31a1 1 0 0 1-1.314-1.506l3.794-3.312Zm-2.487-6.866a1 1 0 1 1 0 2H1a1 1 0 1 1 0-2h5.365ZM4.961 4.457a1 1 0 0 1 1.411-.097l3.795 3.311a1 1 0 0 1-1.315 1.507l-3.794-3.31a1 1 0 0 1-.097-1.411Z"/>
  </g>
</svg>
