<svg xmlns="http://www.w3.org/2000/svg" width="32" height="26" fill="currentColor" viewBox="0 0 32 26">
  <g>
    <path d="M11.807 24.743V1.257A1.25 1.25 0 0 1 13.047 0c.686 0 1.24.563 1.24 1.257v23.486c0 .694-.554 1.257-1.24 1.257a1.25 1.25 0 0 1-1.24-1.257Zm11.809-3.913V3.866a1.25 1.25 0 0 1 1.24-1.257c.685 0 1.24.563 1.24 1.257v16.963a1.25 1.25 0 0 1-1.24 1.257 1.25 1.25 0 0 1-1.24-1.256ZM5.904 19.523V5.172c0-.694.555-1.257 1.24-1.257.685 0 1.24.563 1.24 1.257v14.352c0 .694-.555 1.256-1.24 1.256-.685 0-1.24-.562-1.24-1.256Zm11.807-2.61V7.781c0-.694.555-1.257 1.24-1.257.685 0 1.24.563 1.24 1.257v9.133c0 .694-.555 1.257-1.24 1.257-.685 0-1.24-.563-1.24-1.257ZM0 14.305V10.39c0-.694.555-1.257 1.24-1.257.685 0 1.24.563 1.24 1.257v3.915c0 .694-.555 1.257-1.24 1.257-.685 0-1.24-.563-1.24-1.257Zm29.52 0V10.39c0-.694.555-1.257 1.24-1.257.684 0 1.24.563 1.24 1.257v3.915a1.25 1.25 0 0 1-1.24 1.257c-.685 0-1.24-.563-1.24-1.257Z"/>
  </g>
</svg>
